<svg width="18" height="18" viewBox="0 0 18 18" fill="none" xmlns="http://www.w3.org/2000/svg" style="color:#282B2E">
    <path fill-rule="evenodd" clip-rule="evenodd"
          d="M13.0303 5.53033C13.3232 5.23744 13.3232 4.76256 13.0303 4.46967C12.7374 4.17678 12.2626 4.17678 11.9697 4.46967L9.46967 6.96967C9.17678 7.26256 9.17678 7.73744 9.46967 8.03033C9.76256 8.32322 10.2374 8.32322 10.5303 8.03033L13.0303 5.53033ZM11.9697 13.5303C12.2626 13.8232 12.7374 13.8232 13.0303 13.5303C13.3232 13.2374 13.3232 12.7626 13.0303 12.4697L9.03033 8.46967C8.73744 8.17678 8.26256 8.17678 7.96967 8.46967C7.67678 8.76256 7.67678 9.23744 7.96967 9.53033L11.9697 13.5303ZM10.0303 5.53033C10.3232 5.23744 10.3232 4.76256 10.0303 4.46967C9.73744 4.17678 9.26256 4.17678 8.96967 4.46967L4.96967 8.46967C4.67678 8.76256 4.67678 9.23744 4.96967 9.53033C5.26256 9.82322 5.73744 9.82322 6.03033 9.53033L10.0303 5.53033ZM8.96967 13.5303C9.26256 13.8232 9.73744 13.8232 10.0303 13.5303C10.3232 13.2374 10.3232 12.7626 10.0303 12.4697L7.53033 9.96967C7.23744 9.67678 6.76256 9.67678 6.46967 9.96967C6.17678 10.2626 6.17678 10.7374 6.46967 11.0303L8.96967 13.5303Z"
          style="fill: currentColor; stroke:none;"
    />
</svg>
