<svg width="19" height="18" viewBox="0 0 19 18" fill="none" xmlns="http://www.w3.org/2000/svg">
    <circle cx="9.5" cy="9" r="7" style="fill: none; stroke: currentColor;"/>
    <path fill-rule="evenodd" clip-rule="evenodd"
          d="M11.2678 11.4749C11.4631 11.6701 11.7797 11.6701 11.9749 11.4749C12.1702 11.2796 12.1702 10.963 11.9749 10.7678L10.2071 9L11.9749 7.23223C12.1702 7.03697 12.1702 6.72039 11.9749 6.52513C11.7797 6.32986 11.4631 6.32986 11.2678 6.52513L9.50004 8.29289L7.73227 6.52513C7.53701 6.32986 7.22043 6.32986 7.02517 6.52513C6.8299 6.72039 6.8299 7.03697 7.02517 7.23223L8.79293 9L7.02517 10.7678C6.8299 10.963 6.8299 11.2796 7.02517 11.4749C7.22043 11.6701 7.53701 11.6701 7.73227 11.4749L9.50004 9.70711L11.2678 11.4749Z"
          style="fill: currentColor; stroke: none;"/>
</svg>
