<svg width="18" height="18" viewBox="0 0 18 18" fill="none" xmlns="http://www.w3.org/2000/svg" style="color: #282B2E;">
    <path d="M10.0895 15H5C3.89543 15 3 14.1046 3 13V5C3 3.89543 3.89543 3 5 3H13C14.1046 3 15 3.89543 15 5V11"
          style="stroke: currentColor; fill: none;" stroke-width="1.5" stroke-linecap="round" stroke-linejoin="round"/>
    <path d="M3 6H15" style="stroke: currentColor; fill: none;" stroke-width="1.5" stroke-linejoin="round"/>
    <path d="M9 13V8" style="stroke: currentColor; fill: none;" stroke-width="1.5" stroke-linecap="round" stroke-linejoin="round"/>
    <path fill-rule="evenodd" clip-rule="evenodd"
          d="M15.75 13.5C15.75 13.0858 15.4142 12.75 15 12.75C14.5858 12.75 14.25 13.0858 14.25 13.5V14.25H13.5C13.0858 14.25 12.75 14.5858 12.75 15C12.75 15.4142 13.0858 15.75 13.5 15.75H14.25V16.5C14.25 16.9142 14.5858 17.25 15 17.25C15.4142 17.25 15.75 16.9142 15.75 16.5V15.75H16.5C16.9142 15.75 17.25 15.4142 17.25 15C17.25 14.5858 16.9142 14.25 16.5 14.25H15.75V13.5Z"
          style="fill: currentColor; stroke: none;"/>
</svg>
