<svg width="18" height="18" viewBox="0 0 18 18" fill="none" xmlns="http://www.w3.org/2000/svg" style="color: #336CFF;">
    <path d="M8 3.52539L2 14.5254" style="fill: none; stroke: currentColor;" stroke-width="1.5" stroke-linecap="round"/>
    <path fill-rule="evenodd" clip-rule="evenodd"
          d="M10.5 10.5254C10.5 10.8015 10.7239 11.0254 11 11.0254C11.2761 11.0254 11.5 10.8015 11.5 10.5254V9.73234L12.0607 10.293C12.2559 10.4883 12.5725 10.4883 12.7678 10.293C12.963 10.0977 12.963 9.78116 12.7678 9.5859L12.2073 9.02539H13C13.2761 9.02539 13.5 8.80153 13.5 8.52539C13.5 8.24925 13.2761 8.02539 13 8.02539H12.207L12.7678 7.46458C12.963 7.26932 12.963 6.95273 12.7678 6.75747C12.5725 6.56221 12.2559 6.56221 12.0607 6.75747L11.5 7.31813V6.52539C11.5 6.24925 11.2761 6.02539 11 6.02539C10.7239 6.02539 10.5 6.24925 10.5 6.52539V7.31813L9.93934 6.75747C9.74408 6.56221 9.4275 6.56221 9.23223 6.75747C9.03697 6.95273 9.03697 7.26932 9.23223 7.46458L9.79305 8.02539H9C8.72386 8.02539 8.5 8.24925 8.5 8.52539C8.5 8.80153 8.72386 9.02539 9 9.02539H9.79274L9.23223 9.5859C9.03697 9.78116 9.03697 10.0977 9.23223 10.293C9.42749 10.4883 9.74408 10.4883 9.93934 10.293L10.5 9.73234V10.5254Z"
          style="fill: currentColor; stroke: none;"/>
</svg>
