<svg width="18" height="18" viewBox="0 0 18 18" fill="none" xmlns="http://www.w3.org/2000/svg">
<circle cx="9" cy="9" r="7" stroke="#282B2E" stroke-width="1.5"/>
<path fill-rule="evenodd" clip-rule="evenodd" d="M12.5611 4.77913C11.6824 3.90045 10.2578 3.90045 9.37907 4.77913L7.27096 6.88724C6.38458 7.77362 6.39349 9.21344 7.29076 10.0888L7.74731 10.5342C8.0438 10.8234 8.51864 10.8175 8.80789 10.521C9.09713 10.2246 9.09126 9.74971 8.79476 9.46047L8.33822 9.01508C8.03913 8.7233 8.03616 8.24336 8.33162 7.9479L10.4397 5.83979C10.7326 5.54689 11.2075 5.54689 11.5004 5.83979L12.2075 6.54689C12.5004 6.83979 12.5004 7.31466 12.2075 7.60755L11.6659 8.14912C11.373 8.44201 11.373 8.91689 11.6659 9.20978C11.9588 9.50267 12.4337 9.50267 12.7266 9.20978L13.2682 8.66821C14.1468 7.78953 14.1468 6.36491 13.2682 5.48623L12.5611 4.77913ZM10.2569 7.42501C9.96402 7.13212 9.48915 7.13212 9.19626 7.42501C8.90336 7.71791 8.90336 8.19278 9.19626 8.48567L9.25355 8.54296L9.67882 8.96824C9.97172 9.26114 9.97172 9.73601 9.67883 10.0289L7.55751 12.1502C7.26461 12.4431 6.78974 12.4431 6.49685 12.1502L5.78974 11.4431C5.49685 11.1502 5.49685 10.6753 5.78974 10.3825L6.23653 9.93567C6.52942 9.64278 6.52942 9.1679 6.23653 8.87501C5.94363 8.58212 5.46876 8.58212 5.17587 8.87501L4.72908 9.3218C3.8504 10.2005 3.8504 11.6251 4.72908 12.5038L5.43619 13.2109C6.31486 14.0896 7.73949 14.0896 8.61817 13.2109L10.7395 11.0896C11.6182 10.2109 11.6182 8.78626 10.7395 7.90758L10.3142 7.4823L10.2569 7.42501Z" fill="#282B2E"/>
</svg>
