<svg width="19" height="18" viewBox="0 0 19 18" fill="none" xmlns="http://www.w3.org/2000/svg" style="color:#282B2E">
    <rect x="4" y="2.75" width="8.5" height="10.5" rx="1.25" style="stroke: currentColor" stroke-width="1.5"/>
    <path d="M4.75 15.5H11.75C13.4069 15.5 14.75 14.1569 14.75 12.5V5.5" style="stroke: currentColor" stroke-width="1.5"
          stroke-linecap="round"/>
    <path d="M6.25 5.25C5.83579 5.25 5.5 5.58579 5.5 6C5.5 6.41421 5.83579 6.75 6.25 6.75V5.25ZM10.25 6.75C10.6642 6.75 11 6.41421 11 6C11 5.58579 10.6642 5.25 10.25 5.25V6.75ZM6.25 6.75H10.25V5.25H6.25V6.75Z"
          style="fill: currentColor; stroke: none"/>
    <path d="M6.25 7.25C5.83579 7.25 5.5 7.58579 5.5 8C5.5 8.41421 5.83579 8.75 6.25 8.75V7.25ZM10.25 8.75C10.6642 8.75 11 8.41421 11 8C11 7.58579 10.6642 7.25 10.25 7.25V8.75ZM6.25 8.75H10.25V7.25H6.25V8.75Z"
          style="fill: currentColor; stroke: none"/>
    <path d="M6.25 9.25C5.83579 9.25 5.5 9.58579 5.5 10C5.5 10.4142 5.83579 10.75 6.25 10.75V9.25ZM10.25 10.75C10.6642 10.75 11 10.4142 11 10C11 9.58579 10.6642 9.25 10.25 9.25V10.75ZM6.25 10.75H10.25V9.25H6.25V10.75Z"
          style="fill: currentColor; stroke: none"/>
</svg>
