<svg width="18" height="18" viewBox="0 0 18 18" fill="none" xmlns="http://www.w3.org/2000/svg">
    <path d="M2.50293 9.00391C2.50293 10.2004 5.4129 11.1704 9.00252 11.1704C12.5921 11.1704 15.5021 10.2004 15.5021 9.00391"
          style="fill: none; stroke: currentColor;"/>
    <path fill-rule="evenodd" clip-rule="evenodd"
          d="M3.47793 4.92371C3.29413 4.77886 3.25961 4.69117 3.25373 4.66946C3.25961 4.64775 3.29413 4.56006 3.47793 4.41521C3.71289 4.23004 4.09937 4.03048 4.64379 3.849C5.72479 3.48867 7.26589 3.25293 9.00252 3.25293C10.7392 3.25293 12.2803 3.48867 13.3613 3.849C13.9057 4.03048 14.2922 4.23004 14.5271 4.41521C14.7109 4.56006 14.7454 4.64775 14.7513 4.66946C14.7454 4.69117 14.7109 4.77886 14.5271 4.92371C14.2922 5.10888 13.9057 5.30844 13.3613 5.48992C12.2803 5.85025 10.7392 6.08599 9.00252 6.08599C7.26589 6.08599 5.72479 5.85025 4.64379 5.48992C4.09937 5.30844 3.71289 5.10888 3.47793 4.92371ZM9.00252 1.75293C7.14953 1.75293 5.44083 2.00218 4.16945 2.42598C3.53767 2.63657 2.9723 2.90386 2.54947 3.23709C2.13517 3.5636 1.75306 4.04186 1.75293 4.66913C1.75293 4.66924 1.75293 4.66935 1.75293 4.66946V13.3353C1.75293 13.9627 2.13509 14.4411 2.54947 14.7676C2.9723 15.1009 3.53767 15.3681 4.16945 15.5787C5.44083 16.0025 7.14953 16.2518 9.00252 16.2518C10.8555 16.2518 12.5642 16.0025 13.8356 15.5787C14.4674 15.3681 15.0327 15.1009 15.4556 14.7676C15.87 14.4411 16.2521 13.9627 16.2521 13.3353L16.2521 4.66946C16.2521 4.66935 16.2521 4.66924 16.2521 4.66913C16.252 4.04186 15.8699 3.5636 15.4556 3.23709C15.0327 2.90386 14.4674 2.63657 13.8356 2.42598C12.5642 2.00218 10.8555 1.75293 9.00252 1.75293ZM14.7521 6.53937C14.4714 6.67992 14.1624 6.80401 13.8356 6.91294C12.5642 7.33674 10.8555 7.58599 9.00252 7.58599C7.14953 7.58599 5.44083 7.33674 4.16945 6.91294C3.84266 6.80401 3.53365 6.67992 3.25293 6.53937V13.3319C3.25584 13.3461 3.2825 13.4355 3.47793 13.5895C3.71289 13.7747 4.09937 13.9742 4.64379 14.1557C5.72479 14.516 7.26589 14.7518 9.00252 14.7518C10.7392 14.7518 12.2803 14.516 13.3613 14.1557C13.9057 13.9742 14.2922 13.7747 14.5271 13.5895C14.7226 13.4355 14.7492 13.3461 14.7521 13.3319V6.53937Z"
          style="fill: currentColor; stroke: none;"/>
</svg>
