<svg width="18" height="18" viewBox="0 0 18 18" fill="none" xmlns="http://www.w3.org/2000/svg">
    <path d="M2.50391 9.00391C2.50391 10.2004 5.41387 11.1704 9.0035 11.1704C12.5931 11.1704 15.5031 10.2004 15.5031 9.00391"
          stroke="#336CFF" stroke-width="1.5"/>
    <path fill-rule="evenodd" clip-rule="evenodd"
          d="M3.47695 4.92371C3.29315 4.77886 3.25864 4.69117 3.25276 4.66946C3.25864 4.64775 3.29315 4.56006 3.47695 4.41521C3.71192 4.23004 4.09839 4.03048 4.64281 3.849C5.72381 3.48867 7.26491 3.25293 9.00155 3.25293C10.7382 3.25293 12.2793 3.48867 13.3603 3.849C13.9047 4.03048 14.2912 4.23004 14.5261 4.41521C14.7099 4.56006 14.7445 4.64775 14.7503 4.66946C14.7445 4.69117 14.7099 4.77886 14.5261 4.92371C14.2912 5.10888 13.9047 5.30844 13.3603 5.48992C12.2793 5.85025 10.7382 6.08599 9.00155 6.08599C7.26491 6.08599 5.72381 5.85025 4.64281 5.48992C4.09839 5.30844 3.71192 5.10888 3.47695 4.92371ZM9.00155 1.75293C7.14855 1.75293 5.43986 2.00218 4.16847 2.42598C3.5367 2.63657 2.97133 2.90386 2.54849 3.23709C2.13419 3.5636 1.75209 4.04186 1.75195 4.66913C1.75195 4.66924 1.75195 4.66935 1.75195 4.66946V13.3353C1.75195 13.9627 2.13412 14.4411 2.54849 14.7676C2.97133 15.1009 3.5367 15.3681 4.16847 15.5787C5.43986 16.0025 7.14855 16.2518 9.00155 16.2518C9.91917 16.2518 10.7974 16.1907 11.6023 16.0789C12.0126 16.022 12.299 15.6432 12.242 15.2329C12.185 14.8226 11.8063 14.5362 11.396 14.5932C10.663 14.695 9.85389 14.7518 9.00155 14.7518C7.26491 14.7518 5.72381 14.516 4.64281 14.1557C4.09839 13.9742 3.71192 13.7747 3.47695 13.5895C3.28152 13.4355 3.25487 13.3461 3.25195 13.3319V6.53937C3.53267 6.67992 3.84169 6.80401 4.16847 6.91294C5.43986 7.33674 7.14855 7.58599 9.00155 7.58599C10.8545 7.58599 12.5632 7.33674 13.8346 6.91294C14.1614 6.80401 14.4704 6.67992 14.7511 6.53937V9.00219H16.2511L16.2511 4.66946C16.2511 4.66935 16.2511 4.66924 16.2511 4.66913C16.251 4.04186 15.8689 3.5636 15.4546 3.23709C15.0318 2.90386 14.4664 2.63657 13.8346 2.42598C12.5632 2.00218 10.8545 1.75293 9.00155 1.75293Z"
          style="fill: #336CFF; stroke: null;"/>
    <path fill-rule="evenodd" clip-rule="evenodd"
          d="M13.25 12.0254C13.25 11.6112 13.5858 11.2754 14 11.2754H17C17.4142 11.2754 17.75 11.6112 17.75 12.0254C17.75 12.4396 17.4142 12.7754 17 12.7754H14C13.5858 12.7754 13.25 12.4396 13.25 12.0254ZM13.25 14.0254C13.25 13.6112 13.5858 13.2754 14 13.2754H15C15.4142 13.2754 15.75 13.6112 15.75 14.0254C15.75 14.4396 15.4142 14.7754 15 14.7754H14C13.5858 14.7754 13.25 14.4396 13.25 14.0254ZM14 15.2754C13.5858 15.2754 13.25 15.6112 13.25 16.0254C13.25 16.4396 13.5858 16.7754 14 16.7754H17C17.4142 16.7754 17.75 16.4396 17.75 16.0254C17.75 15.6112 17.4142 15.2754 17 15.2754H14Z"
          style="fill: #F5991B; stroke: null;"/>
</svg>
