<svg width="18" height="18" viewBox="0 0 18 18" fill="none" xmlns="http://www.w3.org/2000/svg">
    <path d="M2.50391 9.00391C2.50391 10.2004 5.41387 11.1704 9.0035 11.1704C12.5931 11.1704 15.5031 10.2004 15.5031 9.00391"
          stroke="#F5991B" stroke-width="1.5"/>
    <path fill-rule="evenodd" clip-rule="evenodd"
          d="M3.47695 4.92371C3.29315 4.77886 3.25864 4.69117 3.25276 4.66946C3.25864 4.64775 3.29315 4.56006 3.47695 4.41521C3.71192 4.23004 4.09839 4.03048 4.64281 3.849C5.72381 3.48867 7.26491 3.25293 9.00155 3.25293C10.7382 3.25293 12.2793 3.48867 13.3603 3.849C13.9047 4.03048 14.2912 4.23004 14.5261 4.41521C14.7099 4.56006 14.7445 4.64775 14.7503 4.66946C14.7445 4.69117 14.7099 4.77886 14.5261 4.92371C14.2912 5.10888 13.9047 5.30844 13.3603 5.48992C12.2793 5.85025 10.7382 6.08599 9.00155 6.08599C7.26491 6.08599 5.72381 5.85025 4.64281 5.48992C4.09839 5.30844 3.71192 5.10888 3.47695 4.92371ZM9.00155 1.75293C7.14855 1.75293 5.43986 2.00218 4.16847 2.42598C3.5367 2.63657 2.97133 2.90386 2.54849 3.23709C2.13419 3.5636 1.75209 4.04186 1.75195 4.66913C1.75195 4.66924 1.75195 4.66935 1.75195 4.66946V13.3353C1.75195 13.9627 2.13412 14.4411 2.54849 14.7676C2.97133 15.1009 3.5367 15.3681 4.16847 15.5787C5.43986 16.0025 7.14855 16.2518 9.00155 16.2518C10.8545 16.2518 12.5632 16.0025 13.8346 15.5787C14.4664 15.3681 15.0318 15.1009 15.4546 14.7676C15.869 14.4411 16.2511 13.9627 16.2511 13.3353L16.2511 4.66946C16.2511 4.66935 16.2511 4.66924 16.2511 4.66913C16.251 4.04186 15.8689 3.5636 15.4546 3.23709C15.0318 2.90386 14.4664 2.63657 13.8346 2.42598C12.5632 2.00218 10.8545 1.75293 9.00155 1.75293ZM14.7511 6.53937C14.4704 6.67992 14.1614 6.80401 13.8346 6.91294C12.5632 7.33674 10.8545 7.58599 9.00155 7.58599C7.14855 7.58599 5.43986 7.33674 4.16847 6.91294C3.84169 6.80401 3.53267 6.67992 3.25195 6.53937V13.3319C3.25487 13.3461 3.28153 13.4355 3.47695 13.5895C3.71192 13.7747 4.09839 13.9742 4.64281 14.1557C5.72381 14.516 7.26491 14.7518 9.00155 14.7518C10.7382 14.7518 12.2793 14.516 13.3603 14.1557C13.9047 13.9742 14.2912 13.7747 14.5261 13.5895C14.7216 13.4355 14.7482 13.3461 14.7511 13.3319V6.53937Z"
          style="fill: #336CFF; stroke: none;"/>
</svg>
