<svg width="18" height="18" viewBox="0 0 18 18" fill="none" xmlns="http://www.w3.org/2000/svg">
<path fill-rule="evenodd" clip-rule="evenodd" d="M16.001 4.3335C16.001 5.62225 12.8668 6.66699 9.00049 6.66699C5.13423 6.66699 2 5.62225 2 4.3335C2 3.04474 5.13423 2 9.00049 2C12.8668 2 16.001 3.04474 16.001 4.3335ZM16.001 6.66699C16.001 7.95575 12.8668 9.00049 9.00049 9.00049C5.13423 9.00049 2 7.95575 2 6.66699V9.59823C3.71992 10.6264 6.05342 11.1383 9.00049 11.1383C11.9476 11.1383 14.2811 10.6264 16.001 9.60266V6.66699ZM2 13.6665V11.9307V11.9128C2 11.9128 5.69591 13.4709 9.00049 13.4709C12.0129 13.4709 13.1229 13.0419 15.3264 12.1904C15.54 12.1078 15.764 12.0213 16.001 11.9307V13.6665C16.001 14.9553 12.8668 16 9.00049 16C5.13423 16 2 14.9553 2 13.6665Z" fill="#336CFF"/>
</svg>
