<svg width="25" height="24" viewBox="0 0 25 24" fill="none" xmlns="http://www.w3.org/2000/svg" style="color: #336CFF;">
    <circle cx="12.4998" cy="11.9998" r="9.33333" style="fill: currentColor; stroke none;"/>
    <path fill-rule="evenodd" clip-rule="evenodd"
          d="M13.4909 8.1978C13.4247 7.7097 13.0063 7.3335 12.5 7.3335C11.9477 7.3335 11.5 7.78121 11.5 8.3335V13.0002L11.5091 13.1359C11.5753 13.624 11.9937 14.0002 12.5 14.0002C13.0523 14.0002 13.5 13.5524 13.5 13.0002V8.3335L13.4909 8.1978ZM13.5172 15.6668C13.5172 15.1145 13.0695 14.6668 12.5172 14.6668L12.3643 14.676C11.8762 14.7422 11.5 15.1606 11.5 15.6668C11.5 16.2191 11.9477 16.6668 12.5 16.6668L12.6529 16.6577C13.141 16.5915 13.5172 16.1731 13.5172 15.6668Z"
          style="fill: white; stroke: none;"/>
</svg>
