<svg width="18" height="18" viewBox="0 0 18 18" fill="none" xmlns="http://www.w3.org/2000/svg">
<path fill-rule="evenodd" clip-rule="evenodd" d="M4 3C4 3.55228 3.55228 4 3 4C2.44772 4 2 3.55228 2 3C2 2.44772 2.44772 2 3 2C3.55228 2 4 2.44772 4 3ZM4 9C4 9.55228 3.55228 10 3 10C2.44772 10 2 9.55228 2 9C2 8.44772 2.44772 8 3 8C3.55228 8 4 8.44772 4 9ZM3 16C3.55228 16 4 15.5523 4 15C4 14.4477 3.55228 14 3 14C2.44772 14 2 14.4477 2 15C2 15.5523 2.44772 16 3 16Z" fill="currentColor" stroke="none"/>
<path fill-rule="evenodd" clip-rule="evenodd" d="M5.25 3C5.25 2.58579 5.58579 2.25 6 2.25H15.2486C15.6628 2.25 15.9986 2.58579 15.9986 3C15.9986 3.41421 15.6628 3.75 15.2486 3.75H6C5.58579 3.75 5.25 3.41421 5.25 3ZM5.25 9C5.25 8.58579 5.58579 8.25 6 8.25H15.2486C15.6628 8.25 15.9986 8.58579 15.9986 9C15.9986 9.41421 15.6628 9.75 15.2486 9.75H6C5.58579 9.75 5.25 9.41421 5.25 9ZM6 14.25C5.58579 14.25 5.25 14.5858 5.25 15C5.25 15.4142 5.58579 15.75 6 15.75H15.2486C15.6628 15.75 15.9986 15.4142 15.9986 15C15.9986 14.5858 15.6628 14.25 15.2486 14.25H6Z" fill="currentColor" stroke="none"/>
</svg>
