<svg width="18" height="18" viewBox="0 0 18 18" fill="none" xmlns="http://www.w3.org/2000/svg">
    <path fill-rule="evenodd" clip-rule="evenodd"
          d="M4.5 2.5C3.39543 2.5 2.5 3.39543 2.5 4.5V6.5C2.5 7.60457 3.39543 8.5 4.5 8.5H6.5C7.60457 8.5 8.5 7.60457 8.5 6.5V4.5C8.5 3.39543 7.60457 2.5 6.5 2.5H4.5ZM11.5 2.5C10.3954 2.5 9.5 3.39543 9.5 4.5V6.5C9.5 7.60457 10.3954 8.5 11.5 8.5H13.5C14.6046 8.5 15.5 7.60457 15.5 6.5V4.5C15.5 3.39543 14.6046 2.5 13.5 2.5H11.5ZM2.5 11.5C2.5 10.3954 3.39543 9.5 4.5 9.5H6.5C7.60457 9.5 8.5 10.3954 8.5 11.5V13.5C8.5 14.6046 7.60457 15.5 6.5 15.5H4.5C3.39543 15.5 2.5 14.6046 2.5 13.5V11.5ZM11.5 9.5C10.3954 9.5 9.5 10.3954 9.5 11.5V13.5C9.5 14.6046 10.3954 15.5 11.5 15.5H13.5C14.6046 15.5 15.5 14.6046 15.5 13.5V11.5C15.5 10.3954 14.6046 9.5 13.5 9.5H11.5Z"
          style="fill:currentColor; stroke: none;"/>
</svg>
