<svg width="18" height="18" viewBox="0 0 18 18" fill="none" xmlns="http://www.w3.org/2000/svg">
    <mask id="path-1-inside-1_663:384090" fill="white">
        <path fill-rule="evenodd" clip-rule="evenodd"
              d="M2.5 4.5C2.5 3.39543 3.39543 2.5 4.5 2.5H6.5C7.60457 2.5 8.5 3.39543 8.5 4.5V6.5C8.5 7.60457 7.60457 8.5 6.5 8.5H4.5C3.39543 8.5 2.5 7.60457 2.5 6.5V4.5ZM9.5 4.5C9.5 3.39543 10.3954 2.5 11.5 2.5H13.5C14.6046 2.5 15.5 3.39543 15.5 4.5V6.5C15.5 7.60457 14.6046 8.5 13.5 8.5H11.5C10.3954 8.5 9.5 7.60457 9.5 6.5V4.5ZM4.5 9.5C3.39543 9.5 2.5 10.3954 2.5 11.5V13.5C2.5 14.6046 3.39543 15.5 4.5 15.5H6.5C7.60457 15.5 8.5 14.6046 8.5 13.5V11.5C8.5 10.3954 7.60457 9.5 6.5 9.5H4.5Z"/>
    </mask>
    <path d="M4.5 1C2.567 1 1 2.567 1 4.5H4C4 4.22386 4.22386 4 4.5 4V1ZM6.5 1H4.5V4H6.5V1ZM10 4.5C10 2.567 8.433 1 6.5 1V4C6.77614 4 7 4.22386 7 4.5H10ZM10 6.5V4.5H7V6.5H10ZM6.5 10C8.433 10 10 8.433 10 6.5H7C7 6.77614 6.77614 7 6.5 7V10ZM4.5 10H6.5V7H4.5V10ZM1 6.5C1 8.433 2.567 10 4.5 10V7C4.22386 7 4 6.77614 4 6.5H1ZM1 4.5V6.5H4V4.5H1ZM11.5 1C9.567 1 8 2.567 8 4.5H11C11 4.22386 11.2239 4 11.5 4V1ZM13.5 1H11.5V4H13.5V1ZM17 4.5C17 2.567 15.433 1 13.5 1V4C13.7761 4 14 4.22386 14 4.5H17ZM17 6.5V4.5H14V6.5H17ZM13.5 10C15.433 10 17 8.433 17 6.5H14C14 6.77614 13.7761 7 13.5 7V10ZM11.5 10H13.5V7H11.5V10ZM8 6.5C8 8.433 9.567 10 11.5 10V7C11.2239 7 11 6.77614 11 6.5H8ZM8 4.5V6.5H11V4.5H8ZM4 11.5C4 11.2239 4.22386 11 4.5 11V8C2.567 8 1 9.567 1 11.5H4ZM4 13.5V11.5H1V13.5H4ZM4.5 14C4.22386 14 4 13.7761 4 13.5H1C1 15.433 2.567 17 4.5 17V14ZM6.5 14H4.5V17H6.5V14ZM7 13.5C7 13.7761 6.77614 14 6.5 14V17C8.433 17 10 15.433 10 13.5H7ZM7 11.5V13.5H10V11.5H7ZM6.5 11C6.77614 11 7 11.2239 7 11.5H10C10 9.567 8.433 8 6.5 8V11ZM4.5 11H6.5V8H4.5V11Z"
          style="fill: currentColor; stroke: none;" mask="url(#path-1-inside-1_663:384090)"/>
    <rect x="10.25" y="10.25" width="4.5" height="4.5" rx="1.25" style="fill: none; stroke: currentColor;" stroke-width="1.5"/>
</svg>
