<svg width="18" height="18" viewBox="0 0 18 18" fill="none" xmlns="http://www.w3.org/2000/svg">
<mask id="path-1-inside-1_1:4688" fill="white">
<path fill-rule="evenodd" clip-rule="evenodd" d="M4.5 2.5C3.39543 2.5 2.5 3.39543 2.5 4.5V6.5C2.5 7.60457 3.39543 8.5 4.5 8.5H6.5C7.60457 8.5 8.5 7.60457 8.5 6.5V4.5C8.5 3.39543 7.60457 2.5 6.5 2.5H4.5ZM11.5 2.5C10.3954 2.5 9.5 3.39543 9.5 4.5V6.5C9.5 7.60457 10.3954 8.5 11.5 8.5H13.5C14.6046 8.5 15.5 7.60457 15.5 6.5V4.5C15.5 3.39543 14.6046 2.5 13.5 2.5H11.5ZM2.5 11.5C2.5 10.3954 3.39543 9.5 4.5 9.5H6.5C7.60457 9.5 8.5 10.3954 8.5 11.5V13.5C8.5 14.6046 7.60457 15.5 6.5 15.5H4.5C3.39543 15.5 2.5 14.6046 2.5 13.5V11.5ZM11.5 9.25C10.2574 9.25 9.25 10.2574 9.25 11.5V13.5C9.25 14.7426 10.2574 15.75 11.5 15.75H12C12.4142 15.75 12.75 15.4142 12.75 15C12.75 14.5858 12.4142 14.25 12 14.25H11.5C11.0858 14.25 10.75 13.9142 10.75 13.5V11.5C10.75 11.0858 11.0858 10.75 11.5 10.75H13.5C13.9142 10.75 14.25 11.0858 14.25 11.5V12C14.25 12.4142 14.5858 12.75 15 12.75C15.4142 12.75 15.75 12.4142 15.75 12V11.5C15.75 10.2574 14.7426 9.25 13.5 9.25H11.5Z"/>
</mask>
<path d="M4 4.5C4 4.22386 4.22386 4 4.5 4V1C2.567 1 1 2.567 1 4.5H4ZM4 6.5V4.5H1V6.5H4ZM4.5 7C4.22386 7 4 6.77614 4 6.5H1C1 8.433 2.567 10 4.5 10V7ZM6.5 7H4.5V10H6.5V7ZM7 6.5C7 6.77614 6.77614 7 6.5 7V10C8.433 10 10 8.433 10 6.5H7ZM7 4.5V6.5H10V4.5H7ZM6.5 4C6.77614 4 7 4.22386 7 4.5H10C10 2.567 8.433 1 6.5 1V4ZM4.5 4H6.5V1H4.5V4ZM11 4.5C11 4.22386 11.2239 4 11.5 4V1C9.567 1 8 2.567 8 4.5H11ZM11 6.5V4.5H8V6.5H11ZM11.5 7C11.2239 7 11 6.77614 11 6.5H8C8 8.433 9.567 10 11.5 10V7ZM13.5 7H11.5V10H13.5V7ZM14 6.5C14 6.77614 13.7761 7 13.5 7V10C15.433 10 17 8.433 17 6.5H14ZM14 4.5V6.5H17V4.5H14ZM13.5 4C13.7761 4 14 4.22386 14 4.5H17C17 2.567 15.433 1 13.5 1V4ZM11.5 4H13.5V1H11.5V4ZM4.5 8C2.567 8 1 9.567 1 11.5H4C4 11.2239 4.22386 11 4.5 11V8ZM6.5 8H4.5V11H6.5V8ZM10 11.5C10 9.567 8.433 8 6.5 8V11C6.77614 11 7 11.2239 7 11.5H10ZM10 13.5V11.5H7V13.5H10ZM6.5 17C8.433 17 10 15.433 10 13.5H7C7 13.7761 6.77614 14 6.5 14V17ZM4.5 17H6.5V14H4.5V17ZM1 13.5C1 15.433 2.567 17 4.5 17V14C4.22386 14 4 13.7761 4 13.5H1ZM1 11.5V13.5H4V11.5H1ZM10.75 11.5C10.75 11.0858 11.0858 10.75 11.5 10.75V7.75C9.42893 7.75 7.75 9.42893 7.75 11.5H10.75ZM10.75 13.5V11.5H7.75V13.5H10.75ZM11.5 14.25C11.0858 14.25 10.75 13.9142 10.75 13.5H7.75C7.75 15.5711 9.42893 17.25 11.5 17.25V14.25ZM12 14.25H11.5V17.25H12V14.25ZM11.25 15C11.25 14.5858 11.5858 14.25 12 14.25V17.25C13.2426 17.25 14.25 16.2426 14.25 15H11.25ZM12 15.75C11.5858 15.75 11.25 15.4142 11.25 15H14.25C14.25 13.7574 13.2426 12.75 12 12.75V15.75ZM11.5 15.75H12V12.75H11.5V15.75ZM9.25 13.5C9.25 14.7426 10.2574 15.75 11.5 15.75V12.75C11.9142 12.75 12.25 13.0858 12.25 13.5H9.25ZM9.25 11.5V13.5H12.25V11.5H9.25ZM11.5 9.25C10.2574 9.25 9.25 10.2574 9.25 11.5H12.25C12.25 11.9142 11.9142 12.25 11.5 12.25V9.25ZM13.5 9.25H11.5V12.25H13.5V9.25ZM15.75 11.5C15.75 10.2574 14.7426 9.25 13.5 9.25V12.25C13.0858 12.25 12.75 11.9142 12.75 11.5H15.75ZM15.75 12V11.5H12.75V12H15.75ZM15 11.25C15.4142 11.25 15.75 11.5858 15.75 12H12.75C12.75 13.2426 13.7574 14.25 15 14.25V11.25ZM14.25 12C14.25 11.5858 14.5858 11.25 15 11.25V14.25C16.2426 14.25 17.25 13.2426 17.25 12H14.25ZM14.25 11.5V12H17.25V11.5H14.25ZM13.5 10.75C13.9142 10.75 14.25 11.0858 14.25 11.5H17.25C17.25 9.42893 15.5711 7.75 13.5 7.75V10.75ZM11.5 10.75H13.5V7.75H11.5V10.75Z" fill="#282B2E" mask="url(#path-1-inside-1_1:4688)"/>
<path fill-rule="evenodd" clip-rule="evenodd" d="M16.5 14.25C16.5 13.8358 16.1642 13.5 15.75 13.5C15.3358 13.5 15 13.8358 15 14.25V15H14.25C13.8358 15 13.5 15.3358 13.5 15.75C13.5 16.1642 13.8358 16.5 14.25 16.5H15V17.25C15 17.6642 15.3358 18 15.75 18C16.1642 18 16.5 17.6642 16.5 17.25V16.5H17.25C17.6642 16.5 18 16.1642 18 15.75C18 15.3358 17.6642 15 17.25 15H16.5V14.25Z" fill="#282B2E"/>
</svg>
