<svg width="18" height="19" viewBox="0 0 18 19" fill="none" xmlns="http://www.w3.org/2000/svg">
<path d="M10.0895 15H5C3.89543 15 3 14.1046 3 13V5C3 3.89543 3.89543 3 5 3H13C14.1046 3 15 3.89543 15 5V12" stroke="#282B2E" stroke-width="1.5" stroke-linecap="round" stroke-linejoin="round"/>
<path d="M3 6H15" stroke="#282B2E" stroke-width="1.5" stroke-linejoin="round"/>
<path fill-rule="evenodd" clip-rule="evenodd" d="M15.75 14.5C15.75 14.0858 15.4142 13.75 15 13.75C14.5858 13.75 14.25 14.0858 14.25 14.5V15.25H13.5C13.0858 15.25 12.75 15.5858 12.75 16C12.75 16.4142 13.0858 16.75 13.5 16.75H14.25V17.5C14.25 17.9142 14.5858 18.25 15 18.25C15.4142 18.25 15.75 17.9142 15.75 17.5V16.75H16.5C16.9142 16.75 17.25 16.4142 17.25 16C17.25 15.5858 16.9142 15.25 16.5 15.25H15.75V14.5Z" fill="#282B2E"/>
<path fill-rule="evenodd" clip-rule="evenodd" d="M7.18848 10.2678C7.18848 9.5676 7.75608 9 8.45625 9C9.15643 9 9.72403 9.5676 9.72403 10.2678C9.72403 10.968 9.15643 11.5356 8.45625 11.5356C7.75608 11.5356 7.18848 10.968 7.18848 10.2678ZM8.45625 7.5C6.92765 7.5 5.68848 8.73918 5.68848 10.2678C5.68848 11.7964 6.92765 13.0356 8.45625 13.0356C8.94707 13.0356 9.40804 12.9078 9.80773 12.6837L10.78 13.656C11.0729 13.9489 11.5478 13.9489 11.8407 13.656C12.1336 13.3632 12.1336 12.8883 11.8407 12.5954L10.8695 11.6241C11.0952 11.2233 11.224 10.7606 11.224 10.2678C11.224 8.73918 9.98486 7.5 8.45625 7.5Z" fill="#282B2E"/>
</svg>
