<svg width="18" height="18" viewBox="0 0 18 18" fill="none" xmlns="http://www.w3.org/2000/svg">
<path d="M10.0895 15H5C3.89543 15 3 14.1046 3 13V5C3 3.89543 3.89543 3 5 3H13C14.1046 3 15 3.89543 15 5V12" stroke="#336CFF" stroke-width="1.5" stroke-linecap="round" stroke-linejoin="round"/>
<path d="M3 6H15" stroke="#336CFF" stroke-width="1.5" stroke-linejoin="round"/>
<path fill-rule="evenodd" clip-rule="evenodd" d="M7.18848 10.2678C7.18848 9.5676 7.75608 9 8.45625 9C9.15643 9 9.72403 9.5676 9.72403 10.2678C9.72403 10.968 9.15643 11.5356 8.45625 11.5356C7.75608 11.5356 7.18848 10.968 7.18848 10.2678ZM8.45625 7.5C6.92765 7.5 5.68848 8.73918 5.68848 10.2678C5.68848 11.7964 6.92765 13.0356 8.45625 13.0356C8.94707 13.0356 9.40804 12.9078 9.80773 12.6837L10.78 13.656C11.0729 13.9489 11.5478 13.9489 11.8407 13.656C12.1336 13.3632 12.1336 12.8883 11.8407 12.5954L10.8695 11.6241C11.0952 11.2233 11.224 10.7606 11.224 10.2678C11.224 8.73918 9.98486 7.5 8.45625 7.5Z" fill="#336CFF"/>
<path fill-rule="evenodd" clip-rule="evenodd" d="M13 12.25C13 11.8358 13.3358 11.5 13.75 11.5H16.75C17.1642 11.5 17.5 11.8358 17.5 12.25C17.5 12.6642 17.1642 13 16.75 13H13.75C13.3358 13 13 12.6642 13 12.25ZM13 14.25C13 13.8358 13.3358 13.5 13.75 13.5H14.75C15.1642 13.5 15.5 13.8358 15.5 14.25C15.5 14.6642 15.1642 15 14.75 15H13.75C13.3358 15 13 14.6642 13 14.25ZM13.75 15.5C13.3358 15.5 13 15.8358 13 16.25C13 16.6642 13.3358 17 13.75 17H16.75C17.1642 17 17.5 16.6642 17.5 16.25C17.5 15.8358 17.1642 15.5 16.75 15.5H13.75Z" fill="#F5991B"/>
</svg>
