<svg width="18" height="18" viewBox="0 0 18 18" fill="none" xmlns="http://www.w3.org/2000/svg">
<path fill-rule="evenodd" clip-rule="evenodd" d="M7.25 9.3223C7.25 7.62611 8.62636 6.25 10.3255 6.25C12.0246 6.25 13.401 7.62611 13.401 9.3223C13.401 11.0185 12.0246 12.3946 10.3255 12.3946C8.62636 12.3946 7.25 11.0185 7.25 9.3223ZM10.3255 4.75C7.79911 4.75 5.75 6.7965 5.75 9.3223C5.75 11.8481 7.79911 13.8946 10.3255 13.8946C11.3166 13.8946 12.2343 13.5796 12.9836 13.0443L15.2063 15.2652C15.4993 15.5579 15.9743 15.5579 16.2674 15.2652C16.5604 14.9724 16.5604 14.4977 16.2674 14.2049L14.0456 11.985C14.584 11.2352 14.901 10.3158 14.901 9.3223C14.901 6.7965 12.8519 4.75 10.3255 4.75Z" fill="#F5991B"/>
<path d="M3 3H15" stroke="#336CFF" stroke-width="1.5" stroke-linecap="round"/>
<path d="M3 9H4" stroke="#336CFF" stroke-width="1.5" stroke-linecap="round"/>
<path d="M3 15H8" stroke="#336CFF" stroke-width="1.5" stroke-linecap="round"/>
</svg>
