<svg t="1665394211546" viewBox="0 0 1024 1024" fill="none" version="1.1" xmlns="http://www.w3.org/2000/svg" p-id="4144" width="18" height="18">
<path d="M890.851556 769.365333a171.406222 171.406222 0 0 0-177.493334-143.303111 171.235556 171.235556 0 0 0-162.503111 160c-175.445333-5.489778-237.710222-46.535111-227.555555-129.962666 3.783111-31.175111 22.641778-47.872 57.258666-55.978667 21.048889-4.920889 44.373333-5.603556 65.507556-3.669333 1.934222 0.227556 3.982222 0.341333 5.916444 0.568888 12.913778 3.100444 26.055111 5.717333 39.196445 7.765334 38.968889 6.4 78.648889 9.614222 116.337777 7.566222 106.097778-5.717333 178.318222-52.48 181.959112-151.665778 3.555556-96.142222-62.520889-164.238222-169.016889-209.834666a655.758222 655.758222 0 0 0-106.638223-34.503112 622.478222 622.478222 0 0 0-40.220444-8.248888 171.235556 171.235556 0 0 0-168.931556-153.6A171.377778 171.377778 0 0 0 263.68 392.561778a171.349333 171.349333 0 0 0 200.817778-108.657778c10.723556 1.934222 21.333333 4.096 31.971555 6.599111 32.227556 7.566222 64.455111 17.635556 94.179556 30.435556 80.782222 34.503111 124.928 80.099556 122.88 136.988444-1.848889 50.972444-38.4 74.524444-109.966222 78.421333-31.431111 1.706667-65.820444-1.024-99.783111-6.627555a506.595556 506.595556 0 0 1-25.827556-4.920889c-4.437333-0.910222-7.537778-1.706667-8.903111-2.048l-3.555556-0.682667a369.493333 369.493333 0 0 0-12.231111-1.507555c-28.558222-2.616889-59.534222-1.706667-89.685333 5.262222-63.089778 14.734222-107.320889 53.930667-115.541333 120.917333-17.948444 144.213333 89.827556 211.086222 315.420444 215.893334a171.349333 171.349333 0 0 0 327.424-93.269334zM302.961778 321.137778a95.203556 95.203556 0 1 1 0-190.407111 95.203556 95.203556 0 0 1 0 190.407111z m418.872889 571.192889a95.288889 95.288889 0 0 1-87.950223-131.640889 95.232 95.232 0 1 1 87.950223 131.640889z" p-id="4145" fill="currentColor" stroke="none"></path>
</svg>
