<svg width="18" height="18" viewBox="0 0 18 18" fill="none" xmlns="http://www.w3.org/2000/svg">
<circle cx="9" cy="9" r="3" stroke="currentColor" stroke-width="1.5"/>
<path d="M4.1052 3.99608C4.74534 3.36984 5.50515 2.86544 6.34712 2.52036C6.80632 2.33217 7.29756 2.6072 7.66753 2.93796C8.02127 3.25421 8.4882 3.44647 9.00003 3.44647C9.51185 3.44647 9.97878 3.25421 10.3325 2.93797C10.7025 2.60721 11.1937 2.33218 11.6529 2.52038C12.2202 2.75289 12.7502 3.05774 13.2315 3.42345C13.6309 3.727 13.6394 4.29756 13.5369 4.78867C13.4401 5.25299 13.5071 5.75328 13.7629 6.19636C14.0232 6.64726 14.4326 6.95845 14.8929 7.1036C15.372 7.25469 15.8663 7.54164 15.9346 8.03931C15.9777 8.35343 16 8.67421 16 9.00018C16 9.28036 15.9835 9.55669 15.9515 9.82826C15.8914 10.3382 15.3838 10.6343 14.894 10.7885C14.4332 10.9335 14.0234 11.2448 13.7629 11.6961C13.4979 12.155 13.4355 12.6753 13.5479 13.1535C13.6653 13.6528 13.6702 14.2397 13.2636 14.5523C12.7981 14.9104 12.2862 15.2112 11.7385 15.4442C11.2614 15.6472 10.7484 15.3456 10.3708 14.9901C10.0129 14.653 9.53056 14.4465 9.00003 14.4465C8.46949 14.4465 7.98719 14.653 7.6292 14.9902C7.25169 15.3456 6.73865 15.6473 6.26152 15.4442C5.7137 15.2111 5.20168 14.9102 4.736 14.552C4.32953 14.2394 4.33431 13.6527 4.45163 13.1535C4.56398 12.6754 4.50155 12.1552 4.23662 11.6964C3.97614 11.2452 3.56642 10.9339 3.10581 10.7889C2.61613 10.6347 2.10865 10.3386 2.04853 9.82877C2.01648 9.55704 2 9.28053 2 9.00018C2 8.67403 2.02231 8.35309 2.06548 8.03879C2.13382 7.54126 2.62794 7.25433 3.10688 7.10322C3.56704 6.95802 3.97632 6.64687 4.2366 6.19606" stroke="currentColor" stroke-width="1.5" stroke-linecap="round" stroke-linejoin="round"/>
</svg>
