<svg width="18" height="18" viewBox="0 0 18 18" fill="none" xmlns="http://www.w3.org/2000/svg" style="color: #336CFF;">
    <rect x="1.75" y="3.27539" width="14.5" height="10.5" rx="1.25" style="fill: none; stroke: currentColor;" stroke-width="1.5"/>
    <path d="M5 10.75C5.41421 10.75 5.75 10.4142 5.75 10C5.75 9.58579 5.41421 9.25 5 9.25V10.75ZM4 9.25C3.58579 9.25 3.25 9.58579 3.25 10C3.25 10.4142 3.58579 10.75 4 10.75V9.25ZM14 10.75C14.4142 10.75 14.75 10.4142 14.75 10C14.75 9.58579 14.4142 9.25 14 9.25V10.75ZM13 9.25C12.5858 9.25 12.25 9.58579 12.25 10C12.25 10.4142 12.5858 10.75 13 10.75V9.25ZM11.5 10.75C11.9142 10.75 12.25 10.4142 12.25 10C12.25 9.58579 11.9142 9.25 11.5 9.25V10.75ZM6.5 9.25C6.08579 9.25 5.75 9.58579 5.75 10C5.75 10.4142 6.08579 10.75 6.5 10.75V9.25ZM5 9.25H4V10.75H5V9.25ZM14 9.25H13V10.75H14V9.25ZM11.5 9.25H6.5V10.75H11.5V9.25Z"
          style="fill: currentColor; stroke: none;"/>
    <path d="M5 7.75C5.41421 7.75 5.75 7.41421 5.75 7C5.75 6.58579 5.41421 6.25 5 6.25V7.75ZM4 6.25C3.58579 6.25 3.25 6.58579 3.25 7C3.25 7.41421 3.58579 7.75 4 7.75V6.25ZM5 6.25H4V7.75H5V6.25Z"
          style="fill: currentColor; stroke: none;"/>
    <path d="M8 7.75C8.41421 7.75 8.75 7.41421 8.75 7C8.75 6.58579 8.41421 6.25 8 6.25V7.75ZM7 6.25C6.58579 6.25 6.25 6.58579 6.25 7C6.25 7.41421 6.58579 7.75 7 7.75V6.25ZM8 6.25H7V7.75H8V6.25Z"
          style="fill: currentColor; stroke: none;"/>
    <path d="M11 7.75C11.4142 7.75 11.75 7.41421 11.75 7C11.75 6.58579 11.4142 6.25 11 6.25V7.75ZM10 6.25C9.58579 6.25 9.25 6.58579 9.25 7C9.25 7.41421 9.58579 7.75 10 7.75V6.25ZM11 6.25H10V7.75H11V6.25Z"
          style="fill: currentColor; stroke: none;"/>
    <path d="M14 7.75C14.4142 7.75 14.75 7.41421 14.75 7C14.75 6.58579 14.4142 6.25 14 6.25V7.75ZM13 6.25C12.5858 6.25 12.25 6.58579 12.25 7C12.25 7.41421 12.5858 7.75 13 7.75V6.25ZM14 6.25H13V7.75H14V6.25Z"
          style="fill: currentColor; stroke: none;"/>
</svg>
