<svg width="18" height="18" viewBox="0 0 18 18" fill="none" xmlns="http://www.w3.org/2000/svg" style="color: #282B2E;">
    <path fill-rule="evenodd" clip-rule="evenodd"
          d="M4.5 1.25C3.25736 1.25 2.25 2.25736 2.25 3.5C2.25 4.47966 2.87611 5.31309 3.75 5.62197V13C3.75 14.5188 4.98122 15.75 6.5 15.75H7C7.41421 15.75 7.75 15.4142 7.75 15C7.75 14.5858 7.41421 14.25 7 14.25H6.5C5.80964 14.25 5.25 13.6904 5.25 13V10.25H7C7.41421 10.25 7.75 9.91421 7.75 9.5C7.75 9.08579 7.41421 8.75 7 8.75H5.25V5.75H13.5C14.7426 5.75 15.75 4.74264 15.75 3.5C15.75 2.25736 14.7426 1.25 13.5 1.25H4.5ZM4.5 4.25H13.5C13.9142 4.25 14.25 3.91421 14.25 3.5C14.25 3.08579 13.9142 2.75 13.5 2.75H4.5C4.08579 2.75 3.75 3.08579 3.75 3.5C3.75 3.91421 4.08579 4.25 4.5 4.25ZM8.25 9C8.25 7.75736 9.25736 6.75 10.5 6.75H13.5C14.7426 6.75 15.75 7.75736 15.75 9C15.75 10.2426 14.7426 11.25 13.5 11.25H10.5C9.25736 11.25 8.25 10.2426 8.25 9ZM10.5 8.25C10.0858 8.25 9.75 8.58579 9.75 9C9.75 9.41421 10.0858 9.75 10.5 9.75H13.5C13.9142 9.75 14.25 9.41421 14.25 9C14.25 8.58579 13.9142 8.25 13.5 8.25H10.5ZM10.5 12.25C9.25736 12.25 8.25 13.2574 8.25 14.5C8.25 15.7426 9.25736 16.75 10.5 16.75H13.5C14.7426 16.75 15.75 15.7426 15.75 14.5C15.75 13.2574 14.7426 12.25 13.5 12.25H10.5ZM9.75 14.5C9.75 14.0858 10.0858 13.75 10.5 13.75H13.5C13.9142 13.75 14.25 14.0858 14.25 14.5C14.25 14.9142 13.9142 15.25 13.5 15.25H10.5C10.0858 15.25 9.75 14.9142 9.75 14.5Z"
          style="fill: currentColor; stroke: none;"/>
</svg>
