<svg width="18" height="19" viewBox="0 0 18 19" fill="none" xmlns="http://www.w3.org/2000/svg" style="color:#282B2E">
    <path d="M10.0895 15.4746H5C3.89543 15.4746 3 14.5792 3 13.4746V5.47461C3 4.37004 3.89543 3.47461 5 3.47461H13C14.1046 3.47461 15 4.37004 15 5.47461V12.4746"
          style="stroke: currentColor" stroke-width="1.5" stroke-linecap="round" stroke-linejoin="round"/>
    <path d="M3 6.47461H15" style="stroke: currentColor" stroke-width="1.5" stroke-linejoin="round"/>
    <path d="M3 9.47461H15" style="stroke: currentColor" stroke-width="1.5" stroke-linejoin="round"/>
    <path d="M3 12.4746H15" style="stroke: currentColor" stroke-width="1.5" stroke-linejoin="round"/>
    <path d="M7 12.9746V8.97461" style="stroke: currentColor" stroke-width="1.5" stroke-linecap="round" stroke-linejoin="round"/>
    <path d="M11 12.9746V8.97461" style="stroke: currentColor" stroke-width="1.5" stroke-linecap="round" stroke-linejoin="round"/>
    <path fill-rule="evenodd" clip-rule="evenodd"
          d="M15.75 14.9746C15.75 14.5604 15.4142 14.2246 15 14.2246C14.5858 14.2246 14.25 14.5604 14.25 14.9746V15.7246H13.5C13.0858 15.7246 12.75 16.0604 12.75 16.4746C12.75 16.8888 13.0858 17.2246 13.5 17.2246H14.25V17.9746C14.25 18.3888 14.5858 18.7246 15 18.7246C15.4142 18.7246 15.75 18.3888 15.75 17.9746V17.2246H16.5C16.9142 17.2246 17.25 16.8888 17.25 16.4746C17.25 16.0604 16.9142 15.7246 16.5 15.7246H15.75V14.9746Z"
          style="fill: currentColor; stroke: none"/>
</svg>
