<svg width="18" height="18" viewBox="0 0 18 18" fill="none" xmlns="http://www.w3.org/2000/svg">
<path fill-rule="evenodd" clip-rule="evenodd" d="M5 15C3.89543 15 3 14.1046 3 13V6.5H15V13C15 14.1046 14.1046 15 13 15H12.9776H5ZM15 5.5V5C15 3.89543 14.1046 3 13 3H5C3.89543 3 3 3.89543 3 5V5.5H15ZM4 8.5C3.72386 8.5 3.5 8.72386 3.5 9C3.5 9.27614 3.72386 9.5 4 9.5H6.5V11.5H4C3.72386 11.5 3.5 11.7239 3.5 12C3.5 12.2761 3.72386 12.5 4 12.5H6.5V13.5C6.5 13.7761 6.72386 14 7 14C7.27614 14 7.5 13.7761 7.5 13.5V12.5H10.5V13.5C10.5 13.7761 10.7239 14 11 14C11.2761 14 11.5 13.7761 11.5 13.5V12.5H14C14.2761 12.5 14.5 12.2761 14.5 12C14.5 11.7239 14.2761 11.5 14 11.5H11.5V9.5H14C14.2761 9.5 14.5 9.27614 14.5 9C14.5 8.72386 14.2761 8.5 14 8.5H11.5V7.5C11.5 7.22386 11.2761 7 11 7C10.7239 7 10.5 7.22386 10.5 7.5V8.5H7.5V7.5C7.5 7.22386 7.27614 7 7 7C6.72386 7 6.5 7.22386 6.5 7.5V8.5H4ZM10.5 9.5V11.5H7.5V9.5H10.5Z" fill="currentColor" stroke="none"/>
</svg>
