<svg width="18" height="18" viewBox="0 0 18 18" fill="none" xmlns="http://www.w3.org/2000/svg">
    <path d="M10.0895 15H5C3.89543 15 3 14.1046 3 13V5C3 3.89543 3.89543 3 5 3H13C14.1046 3 15 3.89543 15 5V12"
          stroke="#336CFF" stroke-width="1.5" stroke-linecap="round" stroke-linejoin="round"/>
    <path d="M3 6H15" stroke="#336CFF" stroke-width="1.5" stroke-linejoin="round"/>
    <path d="M3 9H15" stroke="#336CFF" stroke-width="1.5" stroke-linejoin="round"/>
    <path d="M3 12H15" stroke="#336CFF" stroke-width="1.5" stroke-linejoin="round"/>
    <path d="M7 12.5V8.5" stroke="#336CFF" stroke-width="1.5" stroke-linecap="round" stroke-linejoin="round"/>
    <path d="M11 12.5V8.5" stroke="#336CFF" stroke-width="1.5" stroke-linecap="round" stroke-linejoin="round"/>
    <path fill-rule="evenodd" clip-rule="evenodd"
          d="M13.25 12.0254C13.25 11.6112 13.5858 11.2754 14 11.2754H17C17.4142 11.2754 17.75 11.6112 17.75 12.0254C17.75 12.4396 17.4142 12.7754 17 12.7754H14C13.5858 12.7754 13.25 12.4396 13.25 12.0254ZM13.25 14.0254C13.25 13.6112 13.5858 13.2754 14 13.2754H15C15.4142 13.2754 15.75 13.6112 15.75 14.0254C15.75 14.4396 15.4142 14.7754 15 14.7754H14C13.5858 14.7754 13.25 14.4396 13.25 14.0254ZM14 15.2754C13.5858 15.2754 13.25 15.6112 13.25 16.0254C13.25 16.4396 13.5858 16.7754 14 16.7754H17C17.4142 16.7754 17.75 16.4396 17.75 16.0254C17.75 15.6112 17.4142 15.2754 17 15.2754H14Z"
          fill="#F5991B"/>
</svg>
