<svg width="18" height="18" viewBox="0 0 18 18" fill="none" xmlns="http://www.w3.org/2000/svg">
    <circle cx="9" cy="9" r="7" style="fill: currentColor; stroke: none;"/>
    <path fill-rule="evenodd" clip-rule="evenodd"
          d="M9.74315 11.8518C9.69349 12.2178 9.3797 12.5 9 12.5C8.58579 12.5 8.25 12.1642 8.25 11.75V8.25L8.25685 8.14823C8.30651 7.78215 8.6203 7.5 9 7.5C9.41421 7.5 9.75 7.83579 9.75 8.25V11.75L9.74315 11.8518ZM9.76289 6.2497C9.76289 6.66391 9.42711 6.9997 9.01289 6.9997L8.89823 6.99285C8.53215 6.94319 8.25 6.6294 8.25 6.2497C8.25 5.83549 8.58579 5.4997 9 5.4997L9.11466 5.50655C9.48074 5.55621 9.76289 5.87 9.76289 6.2497Z"
          style="fill: white; stroke: none;"/>
</svg>
