<svg width="18" height="18" viewBox="0 0 18 18" fill="none" xmlns="http://www.w3.org/2000/svg">
<path fill-rule="evenodd" clip-rule="evenodd" d="M9 6.93994C6.51472 6.93994 4.5 8.95466 4.5 11.4399C4.5 13.9252 6.51472 15.9399 9 15.9399C11.4853 15.9399 13.5 13.9252 13.5 11.4399C13.5 8.95466 11.4853 6.93994 9 6.93994ZM9.83605 10.2004C9.78018 9.78861 9.42716 9.47119 9 9.47119C8.53401 9.47119 8.15625 9.84895 8.15625 10.3149V12.5649L8.16395 12.6794C8.21982 13.0913 8.57284 13.4087 9 13.4087C9.46599 13.4087 9.84375 13.0309 9.84375 12.5649V10.3149L9.83605 10.2004Z" fill="#336CFF"/>
<path d="M9 2.06006C11.0043 2.06006 12.6413 3.63242 12.7448 5.6109L12.75 5.81006V8.81006C12.75 9.22427 12.4142 9.56006 12 9.56006C11.6203 9.56006 11.3065 9.2779 11.2568 8.91183L11.25 8.81006V5.81006C11.25 4.56742 10.2426 3.56006 9 3.56006C7.80914 3.56006 6.83436 4.48522 6.75519 5.65601L6.75 5.81006V8.81006C6.75 9.22427 6.41421 9.56006 6 9.56006C5.6203 9.56006 5.30651 9.2779 5.25685 8.91183L5.25 8.81006V5.81006C5.25 3.73899 6.92893 2.06006 9 2.06006Z" fill="#336CFF"/>
</svg>
