<svg width="130" height="130" viewBox="0 0 130 130" fill="none" xmlns="http://www.w3.org/2000/svg">
<g opacity="0.09">
<rect width="10" height="10" fill="#336CFF"/>
<rect x="15" width="10" height="10" fill="#336CFF"/>
<rect x="30" width="10" height="10" fill="#336CFF"/>
<rect x="45" width="10" height="10" fill="#336CFF"/>
<rect x="60" width="10" height="10" fill="#336CFF"/>
<rect x="75" width="10" height="10" fill="#336CFF"/>
<rect x="90" width="10" height="10" fill="#336CFF"/>
<rect x="105" width="10" height="10" fill="#336CFF"/>
<rect x="120" width="10" height="10" fill="#336CFF"/>
</g>
<g opacity="0.09">
<rect y="15" width="10" height="10" fill="#336CFF"/>
<rect x="15" y="15" width="10" height="10" fill="#336CFF"/>
<rect x="30" y="15" width="10" height="10" fill="#336CFF"/>
<rect x="45" y="15" width="10" height="10" fill="#336CFF"/>
<rect x="60" y="15" width="10" height="10" fill="#336CFF"/>
<rect x="75" y="15" width="10" height="10" fill="#336CFF"/>
<rect x="90" y="15" width="10" height="10" fill="#336CFF"/>
<rect x="105" y="15" width="10" height="10" fill="#336CFF"/>
<rect x="120" y="15" width="10" height="10" fill="#336CFF"/>
</g>
<rect opacity="0.09" y="30" width="10" height="10" fill="#336CFF"/>
<rect opacity="0.09" x="15" y="30" width="10" height="10" fill="#336CFF"/>
<rect opacity="0.09" x="30" y="30" width="10" height="10" fill="#336CFF"/>
<rect opacity="0.09" x="45" y="30" width="10" height="10" fill="#336CFF"/>
<rect opacity="0.09" x="60" y="30" width="10" height="10" fill="#336CFF"/>
<rect opacity="0.15" x="75" y="30" width="10" height="10" fill="#F5991B"/>
<rect opacity="0.15" x="90" y="30" width="10" height="10" fill="#F5991B"/>
<rect opacity="0.09" x="105" y="30" width="10" height="10" fill="#336CFF"/>
<rect opacity="0.09" x="120" y="30" width="10" height="10" fill="#336CFF"/>
<rect opacity="0.09" y="45" width="10" height="10" fill="#336CFF"/>
<rect opacity="0.09" x="15" y="45" width="10" height="10" fill="#336CFF"/>
<rect opacity="0.09" x="30" y="45" width="10" height="10" fill="#336CFF"/>
<rect opacity="0.09" x="45" y="45" width="10" height="10" fill="#336CFF"/>
<rect opacity="0.09" x="60" y="45" width="10" height="10" fill="#336CFF"/>
<rect opacity="0.15" x="75" y="45" width="10" height="10" fill="#F5991B"/>
<rect opacity="0.15" x="90" y="45" width="10" height="10" fill="#F5991B"/>
<rect opacity="0.09" x="105" y="45" width="10" height="10" fill="#336CFF"/>
<rect opacity="0.09" x="120" y="45" width="10" height="10" fill="#336CFF"/>
<rect opacity="0.09" y="60" width="10" height="10" fill="#336CFF"/>
<rect opacity="0.09" x="15" y="60" width="10" height="10" fill="#336CFF"/>
<rect opacity="0.09" x="30" y="60" width="10" height="10" fill="#336CFF"/>
<rect opacity="0.09" x="45" y="60" width="10" height="10" fill="#336CFF"/>
<rect opacity="0.09" x="60" y="60" width="10" height="10" fill="#336CFF"/>
<rect opacity="0.09" x="75" y="60" width="10" height="10" fill="#336CFF"/>
<rect opacity="0.09" x="90" y="60" width="10" height="10" fill="#336CFF"/>
<rect opacity="0.09" x="105" y="60" width="10" height="10" fill="#336CFF"/>
<rect opacity="0.09" x="120" y="60" width="10" height="10" fill="#336CFF"/>
<rect opacity="0.09" y="75" width="10" height="10" fill="#336CFF"/>
<rect opacity="0.09" x="15" y="75" width="10" height="10" fill="#336CFF"/>
<rect opacity="0.09" x="30" y="75" width="10" height="10" fill="#336CFF"/>
<rect opacity="0.09" x="45" y="75" width="10" height="10" fill="#336CFF"/>
<rect opacity="0.09" x="60" y="75" width="10" height="10" fill="#336CFF"/>
<rect opacity="0.09" x="75" y="75" width="10" height="10" fill="#336CFF"/>
<rect opacity="0.09" x="90" y="75" width="10" height="10" fill="#336CFF"/>
<rect opacity="0.09" x="105" y="75" width="10" height="10" fill="#336CFF"/>
<rect opacity="0.09" x="120" y="75" width="10" height="10" fill="#336CFF"/>
<rect opacity="0.09" y="90" width="10" height="10" fill="#336CFF"/>
<rect opacity="0.09" x="15" y="90" width="10" height="10" fill="#336CFF"/>
<rect opacity="0.09" x="30" y="90" width="10" height="10" fill="#336CFF"/>
<rect opacity="0.09" x="45" y="90" width="10" height="10" fill="#336CFF"/>
<rect opacity="0.09" x="60" y="90" width="10" height="10" fill="#336CFF"/>
<rect opacity="0.09" x="75" y="90" width="10" height="10" fill="#336CFF"/>
<rect opacity="0.09" x="90" y="90" width="10" height="10" fill="#336CFF"/>
<rect opacity="0.09" x="105" y="90" width="10" height="10" fill="#336CFF"/>
<rect opacity="0.09" x="120" y="90" width="10" height="10" fill="#336CFF"/>
<g opacity="0.09">
<rect y="105" width="10" height="10" fill="#336CFF"/>
<rect x="15" y="105" width="10" height="10" fill="#336CFF"/>
<rect x="30" y="105" width="10" height="10" fill="#336CFF"/>
<rect x="45" y="105" width="10" height="10" fill="#336CFF"/>
<rect x="60" y="105" width="10" height="10" fill="#336CFF"/>
<rect x="75" y="105" width="10" height="10" fill="#336CFF"/>
<rect x="90" y="105" width="10" height="10" fill="#336CFF"/>
<rect x="105" y="105" width="10" height="10" fill="#336CFF"/>
<rect x="120" y="105" width="10" height="10" fill="#336CFF"/>
</g>
<g opacity="0.09">
<rect y="120" width="10" height="10" fill="#336CFF"/>
<rect x="15" y="120" width="10" height="10" fill="#336CFF"/>
<rect x="30" y="120" width="10" height="10" fill="#336CFF"/>
<rect x="45" y="120" width="10" height="10" fill="#336CFF"/>
<rect x="60" y="120" width="10" height="10" fill="#336CFF"/>
<rect x="75" y="120" width="10" height="10" fill="#336CFF"/>
<rect x="90" y="120" width="10" height="10" fill="#336CFF"/>
<rect x="105" y="120" width="10" height="10" fill="#336CFF"/>
<rect x="120" y="120" width="10" height="10" fill="#336CFF"/>
</g>
</svg>
