<svg width="162" height="42" viewBox="0 0 162 42" fill="none" xmlns="http://www.w3.org/2000/svg">
    <path fill-rule="evenodd" clip-rule="evenodd" d="M12.5308 15.0356H16.342C16.9411 16.1816 17.2524 17.4462 17.251 18.7282C17.2453 23.2942 13.3868 26.9943 8.62548 26.9998C3.86391 26.9948 0.0051887 23.2944 0 18.7282C0.0051887 14.1619 3.86391 10.4615 8.62548 10.4565C9.96269 10.4552 11.2817 10.754 12.4769 11.329V14.9847C11.452 14.0117 10.0677 13.4665 8.62548 13.4679C5.59693 13.4711 3.14264 15.8247 3.13934 18.729C3.14264 21.6333 5.59693 23.9869 8.62548 23.9901C11.654 23.9869 14.1083 21.6333 14.1116 18.729C14.1133 17.3461 13.5451 16.0186 12.5308 15.0356ZM30.8867 10.8768V20.5002C30.8142 22.4169 29.1396 23.9168 27.1406 23.8554C25.6302 23.8778 24.2533 23.0293 23.6469 21.7026C23.4796 21.3219 23.3923 20.9133 23.3901 20.5002V10.8768H20.1746V20.5002C20.2477 24.1196 23.3618 26.9995 27.1363 26.9382C30.9107 26.9995 34.0249 24.1196 34.0979 20.5002V10.8768H30.8867ZM81.1161 20.5002V10.8768H84.3333V20.5002C84.2603 24.1196 81.1461 26.9995 77.3717 26.9382C73.5972 26.9995 70.4831 24.1196 70.41 20.5002V10.8768H73.6195V20.5002C73.6218 20.9133 73.7091 21.3219 73.8763 21.7026C74.4828 23.0291 75.8597 23.8776 77.37 23.8554C79.369 23.9168 81.0436 22.4169 81.1161 20.5002ZM45.9423 26.4244H37.1808V23.4139H45.9423C46.878 23.4125 47.636 22.6852 47.637 21.788C47.6356 20.891 46.8777 20.1642 45.9423 20.1628H41.7597C39.0951 20.1638 36.9324 18.0964 36.9249 15.5412C36.9282 12.9818 39.0909 10.9078 41.7597 10.9047H50.404V13.916H41.7597C40.824 13.917 40.0656 14.6439 40.0642 15.5412C40.0699 16.4343 40.8283 17.1547 41.7597 17.1515H45.9423C48.6114 17.1542 50.7743 19.2284 50.7772 21.788C50.7743 24.3475 48.6114 26.4217 45.9423 26.4244ZM64.2101 26.3998V20.1793H56.5654V26.3982H53.4261V10.9047H56.5654V17.1704H64.2101V10.9047H67.3494V26.3998H64.2101Z" fill="#336CFF"/>
    <rect x="16.3086" y="7.2002" width="3.85741" height="3.69916" fill="#F5991B"/>
    <path d="M89.9749 14.293C89.9718 14.3242 89.7403 16.614 87.6445 19.6043V21.6845C88.1325 21.1245 88.5485 20.5709 88.9114 20.0297V27.146H90.1188V17.8933C91.0509 15.8726 91.1854 14.3837 91.1948 14.293H89.9749Z" fill="#85888C"/>
    <path d="M100.106 21.087H96.5996V20.2644H99.9403V14.9311C99.9403 14.6152 99.6838 14.3618 99.371 14.3618H92.0514V19.7264C92.0514 20.0235 92.2923 20.2644 92.5895 20.2644H95.3922V21.087H91.3633V27.1491H92.5707V22.2944H95.3922V24.093L92.9148 24.3996V25.607L97.5786 25.0346L97.8351 25.5695H99.1614L97.8602 22.9326L96.6058 23.0076L97.0281 23.8897L96.5996 23.9429V22.2944H99.421V25.2661C99.421 25.948 98.6766 25.9699 98.6766 25.9699H97.8351V27.1491H99.0707C100.622 27.1491 100.628 25.6821 100.628 25.6821V21.6125C100.632 21.3216 100.397 21.087 100.106 21.087ZM96.5996 19.0538V17.9121H98.7329V19.0538H96.5996ZM98.736 16.7047H96.6027V15.563H98.736V16.7047ZM95.3922 15.5661V16.7047H93.2589V15.563H95.3922V15.5661ZM93.2589 19.0538V17.9121H95.3922V19.0538H93.2589Z" fill="#85888C"/>
    <path d="M105.142 16.5699L104.185 14.7275H102.896C102.9 14.7338 103.866 16.5699 103.866 16.5699H105.142Z" fill="#85888C"/>
    <path d="M107.387 16.5699H108.66C108.66 16.5699 109.626 14.7338 109.63 14.7275H108.341L107.387 16.5699Z" fill="#85888C"/>
    <path d="M106.848 14.3237H105.641V17.0826H102.744V18.29H104.562C103.873 19.3411 102.744 20.0449 102.729 20.0542V21.4869C102.81 21.4462 104.69 20.4171 105.641 18.8781V20.414H106.848V19.1753L109.454 20.758V19.2441L107.783 18.2869H109.473V17.0795H106.848V14.3237Z" fill="#85888C"/>
    <path d="M109.066 22.2599C109.132 21.9346 108.884 21.6312 108.55 21.6312H106.476C106.72 21.1119 106.858 20.7209 106.867 20.6865H105.584C105.581 20.6928 105.447 21.1057 105.172 21.6312H102.713V22.8386H104.368C103.686 23.6675 102.882 24.3776 102.882 24.3776C102.882 24.3776 104.036 24.5215 105.509 25.0126C104.818 25.4317 103.911 25.7695 102.713 25.9197V27.1646C104.712 27.0051 106.082 26.3889 107.033 25.6194C107.852 26.001 108.687 26.4921 109.416 27.1271L109.444 25.5256C109.063 25.2534 108.515 24.9813 107.924 24.731C108.644 23.8208 108.944 22.8667 109.066 22.2599ZM105.1 23.7238C105.362 23.4642 105.597 23.1576 105.806 22.8386H107.492C107.292 23.2359 106.998 23.7238 106.535 24.1993C105.991 24.0085 105.475 23.8427 105.1 23.7238Z" fill="#85888C"/>
    <path d="M113.777 23.5265C115.31 21.0585 115.266 18.5342 115.263 18.112H115.882V16.9046H111.891C112.216 15.5001 112.107 14.399 112.119 14.3052H110.893C110.887 14.3458 111.143 16.9796 109.654 19.2193V20.7989C110.042 20.4455 110.364 20.0732 110.64 19.6916C110.815 20.533 111.228 21.8969 112.166 23.3827C111.553 24.1428 110.746 24.8841 109.654 25.5253V27.1269C111.131 26.4262 112.216 25.5285 113.02 24.5744C113.758 25.4753 114.706 26.3793 115.938 27.1926V25.6598C115.044 25.0405 114.343 24.2992 113.777 23.5265ZM111.641 18.112H114.002C114.018 18.5155 114.018 20.2984 112.954 22.2128C112.044 20.4767 111.734 18.8158 111.641 18.112Z" fill="#85888C"/>
    <path d="M120.472 16.5699L119.515 14.7275H118.227C118.23 14.7338 119.196 16.5699 119.196 16.5699H120.472Z" fill="#85888C"/>
    <path d="M122.717 16.5699H123.99C123.99 16.5699 124.956 14.7338 124.96 14.7275H123.671L122.717 16.5699Z" fill="#85888C"/>
    <path d="M122.178 14.3237H120.971V17.0826H118.074V18.29H119.892C119.203 19.3411 118.074 20.0449 118.059 20.0542V21.4869C118.14 21.4462 120.02 20.4171 120.971 18.8781V20.414H122.178V19.1753L124.784 20.758V19.2441L123.113 18.2869H124.803V17.0795H122.178V14.3237Z" fill="#85888C"/>
    <path d="M124.396 22.2599C124.462 21.9346 124.215 21.6312 123.88 21.6312H121.806C122.05 21.1119 122.188 20.7209 122.197 20.6865H120.914C120.911 20.6928 120.777 21.1057 120.502 21.6312H118.043V22.8386H119.698C119.016 23.6675 118.212 24.3776 118.212 24.3776C118.212 24.3776 119.366 24.5215 120.839 25.0126C120.148 25.4317 119.241 25.7695 118.043 25.9197V27.1646C120.042 27.0051 121.412 26.3889 122.363 25.6194C123.185 26.001 124.017 26.4921 124.746 27.1271L124.774 25.5256C124.393 25.2534 123.845 24.9813 123.254 24.731C123.977 23.8208 124.274 22.8667 124.396 22.2599ZM120.43 23.7238C120.692 23.4642 120.927 23.1576 121.137 22.8386H122.826C122.626 23.2359 122.331 23.7238 121.869 24.1993C121.321 24.0085 120.808 23.8427 120.43 23.7238Z" fill="#85888C"/>
    <path d="M129.107 23.5265C130.64 21.0585 130.596 18.5342 130.593 18.112H131.212V16.9046H127.221C127.546 15.5001 127.437 14.399 127.449 14.3052H126.223C126.217 14.3458 126.473 16.9796 124.984 19.2193V20.7989C125.369 20.4455 125.694 20.0732 125.97 19.6916C126.145 20.533 126.558 21.8969 127.496 23.3827C126.883 24.1428 126.076 24.8841 124.984 25.5253V27.1269C126.461 26.4262 127.549 25.5285 128.35 24.5744C129.088 25.4753 130.036 26.3793 131.269 27.1926V25.6598C130.377 25.0405 129.673 24.2992 129.107 23.5265ZM126.971 18.112H129.332C129.348 18.5155 129.348 20.2984 128.284 22.2128C127.374 20.4767 127.065 18.8158 126.971 18.112Z" fill="#85888C"/>
    <path d="M160.442 15.0273H149.691V16.2348H160.442V15.0273Z" fill="#85888C"/>
    <path d="M154.121 20.5829H161.469V19.3755H148.666V20.5829H152.748C152.216 21.7622 151.081 23.9205 149.226 25.8161L149.229 25.8192H149.223V27.0266H159.702H159.789H160.29C160.631 27.0266 160.85 26.67 160.699 26.3666L158.807 22.5911L157.553 22.6662L159.11 25.8223H150.928C152.723 23.7078 153.733 21.5338 154.121 20.5829Z" fill="#85888C"/>
    <path d="M146.444 21.0898V19.8824H143.516V18.553H146.384V15.2216C146.384 14.9057 146.128 14.6523 145.815 14.6523H138.495V17.7616C138.495 23.8268 137.307 25.6973 137.307 25.6973V27.2926C137.307 27.2926 139.033 26.4731 139.559 21.0867H142.315V22.4254H139.822V26.6451C139.822 26.9423 140.062 27.1831 140.36 27.1831H146.015V22.9947C146.015 22.6788 145.759 22.4254 145.446 22.4254H143.522V21.0867H146.444V21.0898ZM144.804 25.9789H141.026V23.636H144.804V25.9789ZM139.703 15.8598H145.177V17.3456H139.703V15.8598ZM139.646 19.8824C139.671 19.4632 139.687 19.019 139.696 18.553H142.308V19.8824H139.646Z" fill="#85888C"/>
    <path d="M136.513 21.5279L138.105 20.9554V19.6698L136.513 20.2391V17.7305H138.105V16.5231H136.513V14.3804H135.305V16.5231H133.432V17.7305H135.305V20.6708L133.432 21.3402L133.441 22.6352L135.305 21.9658V25.5599V25.588L135.312 25.6287C135.315 25.6787 135.305 25.7882 135.262 25.8383C135.221 25.8852 135.105 25.9133 134.955 25.9133H133.998V27.1207H134.955C135.609 27.1207 135.978 26.8549 136.172 26.6328C136.531 26.2199 136.528 25.7069 136.513 25.5348V21.5279Z" fill="#85888C"/>
</svg>
