<svg width="199" height="29" viewBox="0 0 199 29" fill="none" xmlns="http://www.w3.org/2000/svg">
    <path d="M69.249 3.70117H66.959V21.5512H69.249V3.70117Z" fill="#3D71F5"/>
    <path d="M55.75 25.5205L64.46 7.31055H66.81L58.13 25.5205H55.75Z" fill="#3D71F5"/>
    <path d="M52.0078 7.31055H54.3578L60.3278 19.5805L58.3278 20.5805L52.0078 7.31055Z" fill="#3D71F5"/>
    <path d="M82.6789 9.28055C81.4289 8.10055 79.7489 7.37055 77.8889 7.37055C74.0089 7.37055 70.8789 10.5405 70.8789 14.4605C70.8789 18.3805 74.0089 21.5505 77.8889 21.5505C79.7489 21.5505 81.4189 20.8205 82.6789 19.6305V21.5505L84.9089 21.5405V7.31055H82.6789V9.28055ZM82.6789 14.4705C82.6789 17.1505 80.5389 19.3105 77.8889 19.3105C75.2389 19.3105 73.0989 17.1505 73.0989 14.4705C73.0989 11.7905 75.2389 9.63055 77.8889 9.63055C80.5389 9.63055 82.6789 11.7905 82.6789 14.4705C82.6789 14.4505 82.6789 14.4705 82.6789 14.4705Z" fill="#3D71F5"/>
    <path d="M88.8277 3.70117H86.5977V21.5412L88.8277 21.5512V19.6312C90.0777 20.8112 91.7577 21.5512 93.6177 21.5512C97.4977 21.5512 100.628 18.3712 100.628 14.4612C100.628 10.5412 97.4877 7.37117 93.6177 7.37117C91.7577 7.37117 90.0877 8.10117 88.8277 9.28117V3.70117ZM88.8277 14.4512C88.8277 11.7912 90.9677 9.62117 93.6177 9.61117C96.2677 9.61117 98.4077 11.7712 98.4077 14.4512C98.4077 17.1312 96.2677 19.2912 93.6177 19.2912C90.9677 19.2912 88.8277 17.1312 88.8277 14.4512C88.8277 14.4712 88.8277 14.4512 88.8277 14.4512Z" fill="#3D71F5"/>
    <path d="M42.7685 3.70117H40.4785V21.5512H42.7685V3.70117Z" fill="#3D71F5"/>
    <path d="M52.0089 7.31055H48.7589L40.6289 13.9905L42.4589 15.4505L52.0089 7.31055Z" fill="#3D71F5"/>
    <path d="M43.0898 14.0012L49.0798 21.5512H52.0098L44.9498 12.7012L43.0898 14.0012Z" fill="#3D71F5"/>
    <path d="M26.0078 16.292H28.4378C28.9178 18.252 30.2778 19.292 32.5278 19.292C34.7978 19.292 36.3378 18.102 36.3378 16.632C36.3378 14.742 33.9078 13.772 32.3378 13.402C30.0678 12.842 28.5178 12.192 27.7378 11.432C25.7378 9.47195 25.8578 3.75195 32.2278 3.75195C36.7078 3.75195 38.0778 7.33195 38.1978 8.67195H35.7778C35.3378 6.93195 34.1278 5.98195 32.1378 5.98195C29.4878 5.98195 28.4278 7.90195 29.3278 9.47195C29.9678 10.582 32.0578 11.082 32.8278 11.292C38.1778 12.662 38.7178 15.052 38.7178 16.402C38.7178 20.872 34.4578 21.552 32.4278 21.552C30.3578 21.552 29.0978 21.072 27.9378 20.132C26.7878 19.172 26.2178 17.912 26.0078 16.292Z" fill="#3D71F5"/>
    <path d="M10.1897 24.3213L9.23969 22.7812H6.92969L10.1497 28.1012L13.2497 22.7812H11.0697L10.1897 24.3213Z" fill="url(#paint0_linear_3192_77451)"/>
    <path d="M2.34876 19.2712H6.03876V21.5012H2.01876C1.29876 21.5012 0.648763 21.1212 0.278763 20.4912C-0.0912372 19.8512 -0.0912372 19.1012 0.268763 18.4612L4.08876 11.6512L5.39876 13.8712L2.34876 19.2712ZM20.2888 18.4512L16.8688 12.3812L14.9588 13.4812L18.2188 19.2712H16.0988V21.5012H18.5388C19.2588 21.5012 19.9188 21.1212 20.2788 20.4912C20.6388 19.8512 20.6388 19.0912 20.2888 18.4512ZM8.30876 9.14117C8.22876 9.00117 8.22876 8.84117 8.32876 8.67117L10.2888 5.19117L13.7588 11.3112L15.6688 10.2112L10.2788 0.701172L6.42876 7.54117C5.91876 8.38117 5.90876 9.43117 6.40876 10.2612L12.1188 20.3812C12.1988 20.5112 12.1988 20.6812 12.1288 20.8112L11.7288 21.5012H14.2188C14.4788 20.7612 14.4188 19.9312 14.0188 19.2612L8.30876 9.14117Z" fill="url(#paint1_linear_3192_77451)"/>
    <path d="M125.208 7.44195L123.918 5.00195H125.628L126.898 7.44195H125.208Z" fill="#282B2E"/>
    <path d="M131.558 7.44195L132.838 5.00195H131.098L129.828 7.44195H131.558Z" fill="#282B2E"/>
    <path d="M132.637 8.13086H123.707V9.73086H132.637V8.13086Z" fill="#282B2E"/>
    <path d="M129.149 4.4707H127.549V12.5607H129.149V4.4707Z" fill="#282B2E"/>
    <path d="M123.688 13.9715V12.0615C124.878 11.3115 125.858 10.2615 126.518 9.02148L128.037 9.57148C127.097 12.1315 123.828 13.9115 123.698 13.9815" fill="#282B2E"/>
    <path d="M132.618 13.0117L127.768 10.0617L128.708 8.76172L132.618 11.0017V13.0117Z" fill="#282B2E"/>
    <path d="M132.568 21.4423C129.098 18.4023 123.898 17.8023 123.898 17.8023C124.758 17.0323 125.548 16.1823 126.248 15.2723C126.768 14.5423 127.188 13.7523 127.478 12.9023H129.178C128.658 14.3823 127.868 15.7523 126.828 16.9323C128.288 17.3923 131.228 18.3423 132.598 19.3123L132.568 21.4423Z" fill="#282B2E"/>
    <path d="M123.668 21.5021V19.8521C127.798 19.3421 129.328 17.1221 130.008 15.7621H123.668V14.1621H131.408C131.798 14.1621 132.108 14.4721 132.108 14.8621C132.108 14.9121 132.108 14.9521 132.098 14.9921C131.738 16.8121 130.188 20.9821 123.668 21.5021Z" fill="#282B2E"/>
    <path d="M132.879 13.0516V10.9516C134.079 8.99164 134.649 6.72164 134.519 4.43164H136.139C136.149 4.66164 136.679 9.58164 132.879 13.0516Z" fill="#282B2E"/>
    <path d="M134.268 9.49086H141.138V7.88086H134.738L134.268 9.49086Z" fill="#282B2E"/>
    <path d="M141.218 21.5417C134.548 17.1217 134.038 10.7717 134.008 10.4617L135.458 9.01172C135.458 9.08172 135.948 15.8417 141.218 19.5017V21.5417V21.5417Z" fill="#282B2E"/>
    <path d="M132.879 21.4413C137.529 19.2713 140.459 14.5413 140.319 9.41133L138.639 9.36133C138.729 13.4913 136.509 17.3313 132.879 19.3113V21.4413Z" fill="#282B2E"/>
    <path d="M120.297 5.03125H106.027V6.63125H120.297V5.03125Z" fill="#282B2E"/>
    <path d="M121.638 10.8008H104.658V12.4008H121.638V10.8008Z" fill="#282B2E"/>
    <path d="M119.418 19.3516H105.398V20.9516H119.418V19.3516Z" fill="#282B2E"/>
    <path d="M119.297 20.9505L116.447 15.1605L118.107 15.0605L120.617 20.0605C120.767 20.3605 120.647 20.7205 120.347 20.8805C120.267 20.9205 120.167 20.9405 120.077 20.9405H119.297V20.9505Z" fill="#282B2E"/>
    <path d="M106.598 20.5107L105.408 19.3407C107.638 17.0007 109.388 14.2407 110.568 11.2207L112.158 11.7407C110.908 15.0107 109.018 18.0007 106.598 20.5107Z" fill="#282B2E"/>
    <path d="M160.369 11.7324H150.689V13.3324H160.369V11.7324Z" fill="#282B2E"/>
    <path d="M149.309 7.27148H143.109V8.87148H149.309V7.27148Z" fill="#282B2E"/>
    <path d="M145.12 21.3219H143.85V19.7219H145.12C145.26 19.7319 145.41 19.7019 145.53 19.6219C145.58 19.5319 145.6 19.4419 145.59 19.3419V4.42188H147.19V19.2119C147.3 20.2619 146.54 21.2019 145.49 21.3219C145.37 21.3319 145.24 21.3319 145.12 21.3219Z" fill="#282B2E"/>
    <path d="M143.109 15.3814V13.6514L149.299 11.4414V13.1514L143.109 15.3814Z" fill="#282B2E"/>
    <path d="M159.79 21.2612H152.29C151.9 21.2612 151.58 20.9412 151.58 20.5512V14.9512H159.04C159.46 14.9512 159.8 15.2912 159.8 15.7112L159.79 21.2612ZM153.17 19.6612H158.18V16.5512H153.17V19.6612Z" fill="#282B2E"/>
    <path d="M160.29 9.96102H150.53C150.14 9.94102 149.84 9.63102 149.82 9.24102V4.79102H159.53C159.95 4.79102 160.29 5.13102 160.29 5.55102V9.96102ZM151.42 8.36102H158.71V6.39102H151.44L151.42 8.36102Z" fill="#282B2E"/>
    <path d="M156.479 9.25195H154.879V16.082H156.479V9.25195Z" fill="#282B2E"/>
    <path d="M151.43 8.85156L149.82 8.90156C149.82 16.9516 148.24 19.4316 148.24 19.4316V21.5516C148.24 21.5516 151.43 20.0516 151.43 8.85156Z" fill="#282B2E"/>
    <path d="M175.839 11.9122L177.409 7.74219H175.669L174.119 11.9122H175.839Z" fill="#282B2E"/>
    <path d="M167.96 11.9122L166.41 7.74219H164.67L166.24 11.9122H167.96Z" fill="#282B2E"/>
    <path d="M178.39 5.03125H163.67V6.63125H178.39V5.03125Z" fill="#282B2E"/>
    <path d="M179.519 13.0215H162.539V14.6215H179.519V13.0215Z" fill="#282B2E"/>
    <path d="M171.838 5.56055H170.238V21.2905H171.838V5.56055Z" fill="#282B2E"/>
    <path d="M197.498 21.2615H183.858C183.468 21.2615 183.148 20.9415 183.148 20.5515V13.7715H196.758C197.178 13.7715 197.518 14.1115 197.518 14.5315L197.498 21.2615ZM184.738 19.6615H195.888V15.3715H184.738V19.6615Z" fill="#282B2E"/>
    <path d="M198.359 11.4814L195.849 6.48141L194.189 6.58141L196.249 10.7614H184.479C186.099 8.85141 187.439 6.73141 188.449 4.44141H186.599C185.479 6.76141 184.009 8.89141 182.229 10.7614V12.3614H197.039H197.159H197.819C197.909 12.3614 198.009 12.3414 198.089 12.3014C198.389 12.1514 198.509 11.7814 198.359 11.4814Z" fill="#282B2E"/>
    <defs>
        <linearGradient id="paint0_linear_3192_77451" x1="13.977" y1="21.2904" x2="9.05699" y2="25.0514" gradientUnits="userSpaceOnUse">
            <stop stop-color="white"/>
            <stop offset="0.997" stop-color="#F3B23F"/>
            <stop offset="1" stop-color="#F3B23F"/>
        </linearGradient>
        <linearGradient id="paint1_linear_3192_77451" x1="19.3271" y1="10.1562" x2="-0.878037" y2="14.1099" gradientUnits="userSpaceOnUse">
            <stop stop-color="#378CF4"/>
            <stop offset="0.181" stop-color="#3384F4"/>
            <stop offset="0.438" stop-color="#2875F5"/>
            <stop offset="0.746" stop-color="#0C51F4"/>
            <stop offset="1" stop-color="#266EE2"/>
        </linearGradient>
    </defs>
</svg>
