<svg width="200" height="82" viewBox="0 0 200 82" fill="none" xmlns="http://www.w3.org/2000/svg">
<g clip-path="url(#clip0_116_3098)">
<path fill-rule="evenodd" clip-rule="evenodd" d="M7.47113 3.59226L4.94059 22.111H0L2.37992 4.73807L0.87364 5.07871L1.38577 1.48645L7.95314 0L7.47113 3.59226ZM11.4176 14.0284L10.303 22.1419H5.90464L7.35066 11.551H14.5507L14.7013 10.4981H8.61593L9.82095 1.64129L8.82681 0.464511H26.0285L24.6728 10.4981H18.5875L18.4369 11.551H25.0946L23.9197 20.0981C23.8394 20.6968 23.5733 21.1871 23.1214 21.569C22.6695 21.951 22.1523 22.1419 21.5699 22.1419H17.5632L19.5214 20.16L20.3649 14.0284H17.8042L17.4728 16.4439L17.8645 16.4129L17.9247 14.9574H19.7021L19.6419 19.0761H17.6536V18.8284L10.9958 19.2929L11.3272 16.8464L13.8578 16.6916L14.2193 14.0284H11.4176ZM15.5147 4.42839H13.6771L13.8578 3.09678H15.6955L15.5147 4.42839ZM19.4008 4.42839H21.2385L21.4192 3.09678H19.5816L19.4008 4.42839ZM15.0628 7.8658H13.2252L13.4059 6.53419H15.2436L15.0628 7.8658ZM18.9489 7.8658H20.7866L20.9673 6.53419H19.1297L18.9489 7.8658Z" fill="#336CFF"/>
<path fill-rule="evenodd" clip-rule="evenodd" d="M33.7522 22.2968L34.7162 21.5845L35.4693 22.2968H45.1999L47.5195 18.8284L49.2066 22.2968H53.7856L50.1706 14.8645L53.8459 9.38323L54.3882 5.29548H55.2618L55.6534 2.35355H49.7488L50.5622 0H45.1396L45.712 0.712258L43.1212 8.23742H47.7003L48.7246 5.29548H49.8091L49.2668 9.38323V9.41419L48.2727 10.9006L47.5497 9.41419H42.9706L45.5915 14.8645L40.8317 21.9871L37.9095 19.2L40.7714 17.0632L41.163 14.1213H42.3379L42.7296 11.1794H41.5547L41.7053 10.1884H37.6986L37.548 11.1794H34.6861L34.8367 10.1884H30.83L30.6794 11.1794H29.5647L29.1731 14.1213H30.2877L29.8961 17.0632L32.1555 19.2L28.0283 22.2968H33.7522ZM33.1495 10.0026L34.6257 7.64903L34.2943 10.0026H38.301L38.6023 7.86581L39.4458 10.0026H42.8801L41.4943 6.47226H43.3621L43.7838 3.53032H39.2048L39.6868 0H35.0173L35.5295 1.14581L35.1981 3.53032H30.619L30.1972 6.47226H31.9144L29.7152 10.0026H33.1495ZM44.1752 0.588392L43.2715 2.94194H39.8372L40.7409 0.588392H44.1752ZM34.6858 2.94194L34.4448 0.588392H31.0105L31.2515 2.94194H34.6858ZM34.1134 15.6077L35.3787 16.8155L36.9754 15.6077L37.1561 14.1213H34.2942L34.1134 15.6077Z" fill="#336CFF"/>
<path fill-rule="evenodd" clip-rule="evenodd" d="M63.3772 22.2968L64.3412 21.5845L65.0943 22.2968H74.8249L77.1445 18.8284L78.8316 22.2968H83.4106L79.7956 14.8645L83.4709 9.38323L84.0132 5.29548H84.8868L85.2784 2.35355H79.3738L80.1872 0H74.7646L75.337 0.712258L72.7462 8.23742H77.3253L78.3496 5.29548H79.4341L78.8918 9.38323V9.41419L77.8977 10.9006L77.1747 9.41419H72.5956L75.2165 14.8645L70.4567 21.9871L67.5345 19.2L70.3964 17.0632L70.788 14.1213H71.9629L72.3546 11.1794H71.1797L71.3303 10.1884H67.3236L67.173 11.1794H64.3111L64.4617 10.1884H60.455L60.3044 11.1794H59.1897L58.7981 14.1213H59.9127L59.5211 17.0632L61.7805 19.2L57.6533 22.2968H63.3772ZM62.7746 10.0026L64.2507 7.64903L63.9193 10.0026H67.926L68.2273 7.86581L69.0708 10.0026H72.5051L71.1193 6.47226H72.9871L73.4089 3.53032H68.8298L69.3118 0H64.6423L65.1545 1.14581L64.8231 3.53032H60.244L59.8223 6.47226H61.5394L59.3402 10.0026H62.7746ZM73.8002 0.588392L72.8965 2.94194H69.4622L70.3659 0.588392H73.8002ZM64.3108 2.94194L64.0698 0.588392H60.6355L60.8765 2.94194H64.3108ZM63.7385 15.6077L65.0037 16.8155L66.6004 15.6077L66.7811 14.1213H63.9192L63.7385 15.6077Z" fill="#336CFF"/>
<path fill-rule="evenodd" clip-rule="evenodd" d="M91.888 22.2039C92.4704 22.2039 92.9826 22.0129 93.4244 21.631C93.8663 21.249 94.1273 20.7587 94.2077 20.16L95.1114 13.409L96.4068 13.0065L96.8587 9.78581L95.5633 10.1884L96.0755 6.44129H97.401L97.7926 3.71613H96.437L96.9491 0H91.3759L92.129 0.898065L91.7374 3.71613H89.96L89.5683 6.44129H91.3759L90.6529 11.7058L88.8152 12.2632L88.3633 15.5148L90.201 14.9574L89.5985 19.4168L87.2788 22.2039H91.888ZM99.5101 22.1729L102.161 7.7729H113.79L114.784 0.52645H99.1185L95.172 22.1729H99.5101ZM102.914 5.32645H110.084L110.385 3.28257H103.216L102.914 5.32645ZM111.711 21.6464L112.795 13.6877H109.451L109.692 11.9845H113.338L113.699 9.25935H110.054L110.205 8.29935H106.077L105.927 9.25935H102.251L101.89 11.9845H105.565L105.324 13.6877H101.528L100.444 21.6464H111.711ZM104.692 19.1071H108.307L108.668 16.4439H105.053L104.692 19.1071Z" fill="#336CFF"/>
<path fill-rule="evenodd" clip-rule="evenodd" d="M141.667 0L141.246 3.03484H120.007L120.429 0H141.667ZM137.902 12.2942L139.709 21.6774H134.377L134.166 20.6555L116.995 21.4606L117.416 18.271L123.05 10.2813H116.784L117.175 7.30839H142.421L142.029 10.2813H129.346L124.044 17.9303L133.564 17.4658L132.569 12.2942H137.902Z" fill="#336CFF"/>
<path d="M186.498 2.3487L188.944 0L200.809 13.0586H148.42V9.61774L193.101 9.61693L186.498 2.3487Z" fill="#F5991B"/>
<path d="M6.30393 53.9871L11.365 44.9135H16.6972L15.7633 51.9123C15.6629 52.511 15.7834 53.0065 16.1248 53.3987C16.4663 53.791 16.9282 53.9871 17.5106 53.9871V53.9871H25.1926L25.8253 49.3419L24.5299 50.5187H21.6679L22.4211 44.9135H25.8554L26.2771 41.9716H17.6612L18.1433 38.4413H25.6144L26.006 35.4994H18.565L19.047 32H12.1784L13.1725 33.1768L12.8412 35.4994H9.85874L10.883 33.1458H4.88803L5.64117 34.0439L2.68886 40.7948H7.53907L8.56334 38.4413H12.4495L11.9374 41.9716H2.23698L1.81522 44.9135H5.64117L0.580078 53.9871H6.30393Z" fill="#336CFF"/>
<path fill-rule="evenodd" clip-rule="evenodd" d="M37.104 32L38.3391 35.5303H33.7601L32.5249 32H37.104ZM45.2078 44.9445L44.5149 49.0632H39.9358L40.6287 44.9445H38.1886L38.6103 42.0026H41.1409L41.7434 38.4723H39.6647L40.0563 35.5303H42.2254L42.6471 33.1458L41.6831 32H47.407L46.8045 35.5303H48.6421L49.1241 32H53.7032L53.2212 35.5303H54.9384L54.5467 38.4723H52.8296L52.3476 42.0026H54.6371L54.2153 44.9445H51.9258L51.3835 49.0632H46.8045L47.3467 44.9445H45.2078ZM34.7843 53.182L35.2663 52.2839L38.2186 53.182H54.2454L54.637 50.24H40.6286L36.5014 48.9703L38.1885 36.7071H31.8922L31.4705 39.649H32.6152L31.1692 50.24L29.6328 53.182H34.7843ZM45.6897 42.0026H47.7684L48.2504 38.4722H46.2922L45.6897 42.0026Z" fill="#336CFF"/>
<path fill-rule="evenodd" clip-rule="evenodd" d="M83.2084 32L82.7867 35.0348H61.5482L61.9699 32H83.2084ZM79.4427 44.2942L81.2502 53.6774H75.918L75.7071 52.6555L58.5356 53.4606L58.9573 50.271L64.5908 42.2813H58.3247L58.7163 39.3084H83.9615L83.5699 42.2813H70.887L65.585 49.9303L75.1046 49.4658L74.1105 44.2942H79.4427Z" fill="#336CFF"/>
<path fill-rule="evenodd" clip-rule="evenodd" d="M94.9236 34.9419L91.3688 53.7084H86.2173L90.1035 33.1148L89.1696 32H113.782L113.391 34.9419H94.9236ZM103.72 53.1355C103.278 53.5174 102.766 53.7084 102.184 53.7084H97.3938L100.075 50.8284L100.768 45.5329H94.7729L95.9478 37.0168H97.5445L98.9001 35.3135H104.052L102.696 37.0168H112.547L111.372 45.5329H105.317L104.503 51.6645C104.423 52.2632 104.162 52.7535 103.72 53.1355ZM107.486 40.3923H100.045L100.195 39.3703H107.636L107.486 40.3923ZM99.6831 43.1794H107.124L107.245 42.1574H99.8036L99.6831 43.1794ZM96.5805 53.1819L98.9002 46.6787H94.9236L92.5738 53.1819H96.5805ZM110.649 46.6787L111.161 53.151H107.185L106.642 46.6787H110.649Z" fill="#336CFF"/>
<path d="M140.787 53.7703L141.269 50.24H132.081L132.653 46.1213H140.094L140.576 42.591H133.135L133.617 39.0606H141.63L142.113 35.5303H134.099L134.581 32H127.713L128.707 33.1768L128.375 35.5303H125.031L125.845 33.1768H118.976L119.789 34.1368L117.289 41.4142H123.013L123.826 39.0606H127.893L127.411 42.591H118.825L118.343 46.1213H126.929L126.357 50.24H116.084L115.602 53.7703H140.787Z" fill="#336CFF"/>
<path fill-rule="evenodd" clip-rule="evenodd" d="M153.211 36.2735L150.379 42.56H145.649L148.601 36.2735H146.462L146.824 33.5484H149.867L150.108 33.0529L149.204 32H155.139L154.446 33.5484H159.537L158.603 40.4542C158.523 41.0529 158.262 41.5535 157.82 41.9561C157.378 42.3587 156.866 42.56 156.283 42.56H152.216L154.265 39.68L154.717 36.2735H153.211ZM171.376 32.8361L170.021 42.6839H159.356L160.712 32.8361H171.376ZM159.477 54.2039L160.26 48.3819L163.543 53.8323H169.237L164.658 47.1123H169.569L169.93 44.4181H160.802L160.983 43.1174H155.259L155.078 44.4181H145.92L145.559 47.1123H150.62L144.052 53.8323H149.776L154.536 48.32L153.753 54.2039H159.477ZM164.447 40.0206H166.044L166.646 35.5923H165.05L164.447 40.0206Z" fill="#336CFF"/>
<path fill-rule="evenodd" clip-rule="evenodd" d="M180.592 54.2968L182.67 39.0606H185.563L185.954 36.1187H183.092L183.665 32H178.212L178.935 32.8981L178.483 36.1187H175.651L175.26 39.0606H178.091L175.983 54.2968H180.592ZM195.413 54.297C195.996 54.297 196.508 54.106 196.95 53.7241C197.392 53.3422 197.663 52.8518 197.763 52.2531L200.113 34.9422H191.979L193.094 32.0312H187.37L188.123 32.9602L185.833 39.0609H190.413L190.864 37.8841H195.142L193.305 51.417L190.593 54.297H195.413ZM177.549 39.9277L175.169 53.1819H173.03L175.41 39.9277H177.549ZM184.147 51.4168L185.141 39.9277H183.002L182.008 51.4168H184.147ZM193.335 42.591L193.064 50.8284H190.232L190.262 49.8374L184.478 50.8284L184.9 47.8864L187.671 40.2374H190.804L188.515 47.2671L190.353 46.9574L190.503 42.591H193.335Z" fill="#336CFF"/>
<g opacity="0.6">
<path d="M9.41695 64.1279V66.5218H1.92378V67.801H9.41695V70.597H3.38774V71.8213H4.87096C5.17917 72.8081 5.68 73.7401 6.37345 74.5807C7.1247 75.4944 8.01078 76.3168 9.01244 77.0294C6.93207 78.199 4.42792 79.1127 1.5 79.7706L2.28977 80.9401C5.35253 80.1543 7.97225 79.1127 10.1682 77.797C11.1313 78.3817 12.21 78.9117 13.3851 79.3868C14.8683 79.9716 16.4478 80.4832 18.1044 80.9036L18.9134 79.7523C17.3532 79.3868 15.8892 78.9665 14.5216 78.4731C13.3658 78.0345 12.3063 77.5411 11.3432 77.0294C13.3851 75.5675 14.9453 73.8132 16.024 71.7665V70.597H10.8424V67.801H18.4126V66.5218H10.8424V64.1279H9.41695ZM10.1489 76.3168C9.30137 75.7685 8.53087 75.1289 7.85668 74.398C7.1247 73.6487 6.58534 72.7898 6.23861 71.8213H14.4638C13.4621 73.5756 12.0174 75.0741 10.1489 76.3168Z" fill="#336CFF"/>
<path d="M32.5857 64.1827V66.0832H28.8103V67.2711H32.5857V69.4091H28.1168V70.6518H38.6342V69.4091H33.9534V67.2711H37.9022V66.0832H33.9534V64.1827H32.5857ZM27.8086 72.9909V74.2152H34.8973V78.802C34.8973 79.2954 34.6276 79.5513 34.0882 79.5513C33.337 79.5513 32.5472 79.5147 31.7189 79.4782L32.0271 80.7574H34.5891C35.7063 80.7574 36.2842 80.2091 36.2842 79.131V74.2152H38.6535V72.9909H36.2842V71.5838H34.8973V72.9909H27.8086ZM23.6864 80.7208C24.7844 80.7208 25.343 80.1726 25.343 79.0761V73.8863C26.0364 73.6122 26.7106 73.3198 27.3656 72.9909V71.6386C26.7106 71.9675 26.0364 72.2782 25.343 72.5706V68.8975H27.3463V67.6365H25.343V64.3655H23.9753V67.6365H21.606V68.8975H23.9753V73.0822C23.1278 73.3746 22.2802 73.6122 21.3941 73.8132L21.7409 75.1289C22.4728 74.9096 23.2241 74.6721 23.9753 74.4162V78.7472C23.9753 79.2772 23.7057 79.5513 23.2048 79.5513C22.7233 79.5513 22.2224 79.5147 21.7023 79.4599L21.9913 80.7208H23.6864ZM29.8119 75.0741L28.6947 75.7137C29.6771 76.8284 30.4476 77.8335 31.0255 78.7472L32.1234 78.0162C31.5841 77.1756 30.8136 76.1888 29.8119 75.0741Z" fill="#336CFF"/>
<path d="M49.9565 64.0731C48.2614 65.8274 45.6994 66.997 42.2707 67.6183L43.0797 68.8244C45.1408 68.3858 46.913 67.7462 48.4155 66.9056H54.0401C52.9614 68.4041 51.4012 69.5553 49.3979 70.3228C48.7814 69.5919 48.1265 68.934 47.4331 68.3127L46.2195 68.8609C46.8744 69.4274 47.5101 70.067 48.1073 70.7614C46.7203 71.1452 45.1793 71.3827 43.4457 71.4924L44.0428 72.6802C49.6675 72.2599 53.5393 70.2863 55.6197 66.7777V65.736H50.0913C50.4766 65.4071 50.8426 65.0599 51.1893 64.6944L49.9565 64.0731ZM49.2245 75.4944L47.9917 76.0426C48.7044 76.7005 49.3786 77.4497 50.0335 78.2721C47.8568 78.9665 45.2564 79.3137 42.2514 79.332L42.81 80.5929C50.2839 80.4284 55.3693 78.199 58.1046 73.8863V72.8447H52.8266C53.366 72.4609 53.8475 72.0406 54.3098 71.602L53.1155 70.9807C51.1122 72.9909 48.0109 74.2152 43.8117 74.6173L44.64 75.7868C46.9708 75.403 48.9741 74.8183 50.6692 74.0508H56.3709C55.1381 75.6589 53.4623 76.9198 51.3241 77.797C50.6692 76.9746 49.9565 76.2071 49.2245 75.4944Z" fill="#336CFF"/>
<path d="M63.205 65.1878V66.467H76.92V65.1878H63.205ZM61.3558 70.2863V71.602H67.8473C65.8247 75.4944 64.1874 77.8701 62.9546 78.7472C62.8775 78.7838 62.7812 78.8386 62.6271 78.8751L62.9931 80.2091C67.6161 79.9168 71.8732 79.5513 75.7835 79.0761C76.1495 79.734 76.477 80.3736 76.7852 81.0132L78.018 80.1909C77.0548 78.3269 75.6872 76.1157 73.915 73.5939L72.7978 74.2518C73.6453 75.4944 74.4159 76.7005 75.1093 77.8701C71.6613 78.3086 68.2133 78.6193 64.746 78.802C66.0559 77.4497 67.6161 75.0558 69.3883 71.602H78.6344V70.2863H61.3558Z" fill="#336CFF"/>
<path d="M83.8504 76.8832C83.4651 76.8832 83.1762 76.9746 82.945 77.1939C82.7139 77.3949 82.5983 77.669 82.5983 78.0162C82.5983 78.3269 82.7139 78.601 82.945 78.8203C83.1762 79.0396 83.4459 79.1492 83.7733 79.1492C83.9659 79.1492 84.12 79.1127 84.1971 79.0761C84.1971 79.5147 84.0623 79.9168 83.7733 80.3005C83.4651 80.666 83.0606 80.9401 82.5598 81.1046V82C83.3688 81.799 84.043 81.397 84.5438 80.8122C85.0447 80.1909 85.2951 79.4782 85.2951 78.6741C85.2951 78.1442 85.1602 77.7239 84.9098 77.3949C84.6401 77.0477 84.2741 76.8832 83.8504 76.8832Z" fill="#336CFF"/>
<path d="M103.032 70.0487H106.653V64.8954H101.51V66.0467H105.305V68.8975H101.799L101.298 74.1604H105.497C105.497 76.3533 105.401 77.8152 105.208 78.5096C105.035 79.1675 104.38 79.5147 103.244 79.5147C102.762 79.5147 102.3 79.4782 101.837 79.4416L102.184 80.666C102.647 80.7025 103.109 80.7391 103.552 80.7391C105.266 80.666 106.249 80.1178 106.499 79.0579C106.692 78.1076 106.807 76.0792 106.807 73.0091H102.704L103.032 70.0487ZM108.31 67.0883V74.4162H112.336V76.1888H107.462V77.4132H112.336V80.9218H113.684V77.4132H118.635V76.1888H113.684V74.4162H117.787V67.0883H115.283C115.822 66.3208 116.304 65.4254 116.728 64.4386L115.398 64C114.975 65.0782 114.493 66.1015 113.915 67.0883H108.31ZM116.535 73.3015H113.684V71.3279H116.535V73.3015ZM112.336 73.3015H109.543V71.3279H112.336V73.3015ZM109.543 70.2315V68.203H112.336V70.2315H109.543ZM113.684 68.203H116.535V70.2315H113.684V68.203ZM110.583 64.1096L109.311 64.4934C109.889 65.2244 110.429 66.0467 110.891 66.997L112.085 66.5036C111.661 65.6629 111.161 64.8589 110.583 64.1096Z" fill="#336CFF"/>
<path d="M121.558 67.6548C121.5 69.4091 121.269 71.0721 120.865 72.6437L122.001 72.9543C122.387 71.3096 122.618 69.5553 122.656 67.7279L121.558 67.6548ZM126.393 67.2711L125.372 67.5817C125.815 68.6051 126.181 69.6832 126.47 70.798L127.433 70.5604C127.26 70.9259 127.067 71.3096 126.855 71.7117L127.876 72.5888C128.551 71.4558 129.071 70.2132 129.417 68.8792H132.422V73.3015H128.011V74.599H132.422V79.0579H126.913V80.3371H138.548V79.0579H133.848V74.599H137.758V73.3015H133.848V68.8792H138.047V67.6183H133.848V64.201H132.422V67.6183H129.668C129.783 66.9239 129.86 66.1929 129.899 65.4254L128.647 65.2609C128.551 67.0701 128.165 68.7695 127.51 70.3594C127.183 69.1898 126.817 68.1665 126.393 67.2711ZM123.639 64.1827V80.8122H125.045V64.1827H123.639Z" fill="#336CFF"/>
<path d="M141.125 65.2244V66.5036H154.378V78.601C154.378 79.2223 154.05 79.5513 153.434 79.5513C152.471 79.5513 151.45 79.5147 150.39 79.4782L150.698 80.7574H153.915C155.148 80.7574 155.765 80.136 155.765 78.93V66.5036H158.307V65.2244H141.125ZM150.853 69.2995H143.359V77.6142H144.708V76.0061H150.853V69.2995ZM144.708 74.8V70.4873H149.523V74.8H144.708Z" fill="#336CFF"/>
<path d="M167.241 71.3827C166.547 71.7482 165.835 72.0772 165.103 72.3878V68.7513H167.241V67.4904H165.103V64.1827H163.697V67.4904H161.058V68.7513H163.697V72.936C162.753 73.265 161.79 73.5391 160.788 73.7767L161.135 75.0924C162.001 74.8365 162.849 74.5442 163.697 74.2335V78.7655C163.697 79.2772 163.427 79.533 162.907 79.533C162.406 79.533 161.886 79.4964 161.347 79.4599L161.655 80.7391H163.388C164.525 80.7391 165.103 80.1909 165.103 79.0944V73.6853C165.835 73.3929 166.547 73.064 167.241 72.7168V71.3827ZM173.366 64.0731L171.98 64.2924C172.365 65.0051 172.731 65.8091 173.058 66.6863H168.377V71.9858C168.3 75.3848 167.453 78.0345 165.854 79.9533L166.933 80.8853C168.743 78.6558 169.687 75.6772 169.764 71.9858V67.9655H178.394V66.6863H174.464C174.118 65.6995 173.752 64.8406 173.366 64.0731Z" fill="#336CFF"/>
<path d="M184.843 71.0721V72.2416H187.655V74.1421H183.822C183.937 73.1553 184.015 72.1137 184.015 71.0173V69.2264H187.655V71.0721H184.843ZM183.629 75.3482H186.326V78.802C186.326 79.2406 186.095 79.5513 185.633 79.7157L186.018 80.867C188.021 80.4832 189.755 80.0447 191.219 79.533L190.949 78.3269C190.024 78.7107 188.946 79.0579 187.694 79.3503V75.3482H190.313C191.777 78.2538 194.282 80.136 197.826 80.9767L198.5 79.734C197.036 79.4416 195.765 78.9665 194.647 78.2904C195.534 77.8152 196.323 77.1574 197.017 76.3533L196.054 75.4579C195.264 76.4081 194.436 77.0843 193.569 77.5228C192.837 76.9015 192.201 76.1888 191.7 75.3482H197.884V74.1421H194.224V72.2416H197.248V71.0721H194.224V69.2264H196.901V64.8406H182.608V71.0173C182.589 74.6538 181.915 77.6325 180.605 79.935L181.722 80.8853C182.608 79.2406 183.244 77.3949 183.629 75.3482ZM192.875 69.2264V71.0721H188.984V69.2264H192.875ZM188.984 74.1421V72.2416H192.875V74.1421H188.984ZM195.514 66.0467V68.0386H184.015V66.0467H195.514Z" fill="#336CFF"/>
</g>
</g>
<defs>
<clipPath id="clip0_116_3098">
<rect width="200" height="82" fill="white"/>
</clipPath>
</defs>
</svg>
