<svg width="18" height="18" viewBox="0 0 18 18" fill="none" xmlns="http://www.w3.org/2000/svg">
<path fill-rule="evenodd" clip-rule="evenodd" d="M12.75 5.87012C12.75 3.79905 11.0711 2.12012 9 2.12012C6.92893 2.12012 5.25 3.79905 5.25 5.87012V7.87012L5.25685 7.97189C5.2586 7.98479 5.26067 7.99758 5.26307 8.01026C4.5232 8.30367 4 9.02579 4 9.87012V13.8701C4 14.9747 4.89543 15.8701 6 15.8701H12C13.1046 15.8701 14 14.9747 14 13.8701V9.87012C14 8.76555 13.1046 7.87012 12 7.87012H6.75V5.87012L6.75519 5.71607C6.83436 4.54528 7.80914 3.62012 9 3.62012C10.2426 3.62012 11.25 4.62748 11.25 5.87012L11.2568 5.97189C11.3065 6.33796 11.6203 6.62012 12 6.62012C12.4142 6.62012 12.75 6.28433 12.75 5.87012ZM9 10.3701C8.17157 10.3701 7.5 11.0417 7.5 11.8701C7.5 12.5258 7.92068 13.0832 8.50685 13.2872C8.50234 13.3141 8.5 13.3419 8.5 13.3701V14.3701L8.50806 14.46C8.55039 14.6932 8.75454 14.8701 9 14.8701C9.27614 14.8701 9.5 14.6463 9.5 14.3701V13.3701L9.49258 13.2874C10.0791 13.0836 10.5 12.526 10.5 11.8701C10.5 11.0417 9.82843 10.3701 9 10.3701ZM9 11.3701C9.27614 11.3701 9.5 11.594 9.5 11.8701C9.5 12.1463 9.27614 12.3701 9 12.3701C8.72386 12.3701 8.5 12.1463 8.5 11.8701C8.5 11.594 8.72386 11.3701 9 11.3701Z" fill="#336CFF"/>
</svg>
