<svg width="18" height="18" viewBox="0 0 18 18" fill="none" xmlns="http://www.w3.org/2000/svg">
<circle cx="9" cy="9" r="7" fill="#D7C944" stroke="none"/>
<path d="M10.5 5.5C10.5 6.32843 9.82843 7 9 7C8.17157 7 7.5 6.32843 7.5 5.5C7.5 4.67157 8.17157 4 9 4C9.82843 4 10.5 4.67157 10.5 5.5Z" fill="white" stroke="none"/>
<path d="M9 8H8V10.5H10V8H9Z" fill="white" stroke="none"/>
<path d="M6 8H8M12 8H10M8 8H9H10M8 8V10.5M8 13.5V10.5M8 10.5H10M10 10.5V8M10 10.5V13.5" stroke="white" stroke-linecap="round" stroke-linejoin="round"/>
</svg>
