<svg width="18" height="18" viewBox="0 0 18 18" fill="none" xmlns="http://www.w3.org/2000/svg">
<rect x="3.75" y="2.75" width="8.5" height="10.5" rx="1.25" stroke="#336CFF" stroke-width="1.5"/>
<path d="M4.5 15.5H11.5C13.1569 15.5 14.5 14.1569 14.5 12.5V5.5" stroke="#336CFF" stroke-width="1.5" stroke-linecap="round"/>
<path d="M6 5.25C5.58579 5.25 5.25 5.58579 5.25 6C5.25 6.41421 5.58579 6.75 6 6.75V5.25ZM10 6.75C10.4142 6.75 10.75 6.41421 10.75 6C10.75 5.58579 10.4142 5.25 10 5.25V6.75ZM6 6.75H10V5.25H6V6.75Z" fill="#336CFF"/>
<path d="M6 7.25C5.58579 7.25 5.25 7.58579 5.25 8C5.25 8.41421 5.58579 8.75 6 8.75V7.25ZM10 8.75C10.4142 8.75 10.75 8.41421 10.75 8C10.75 7.58579 10.4142 7.25 10 7.25V8.75ZM6 8.75H10V7.25H6V8.75Z" fill="#336CFF"/>
<path d="M6 9.25C5.58579 9.25 5.25 9.58579 5.25 10C5.25 10.4142 5.58579 10.75 6 10.75V9.25ZM10 10.75C10.4142 10.75 10.75 10.4142 10.75 10C10.75 9.58579 10.4142 9.25 10 9.25V10.75ZM6 10.75H10V9.25H6V10.75Z" fill="#336CFF"/>
</svg>
