<svg width="18" height="18" viewBox="0 0 18 18" fill="none" xmlns="http://www.w3.org/2000/svg">
  <circle cx="9" cy="9" r="7" fill="#336CFF"/>
  <path fill-rule="evenodd" clip-rule="evenodd" d="M10.5911 11.6517C10.884 11.9445 11.3588 11.9445 11.6517 11.6517C11.9446 11.3588 11.9446 10.8839 11.6517 10.591L10.0607 9L11.6517 7.40901C11.9446 7.11612 11.9446 6.64124 11.6517 6.34835C11.3588 6.05546 10.884 6.05546 10.5911 6.34835L9.00008 7.93934L7.40909 6.34835C7.11619 6.05546 6.64132 6.05546 6.34843 6.34835C6.05553 6.64124 6.05553 7.11612 6.34843 7.40901L7.93942 9L6.34843 10.591C6.05553 10.8839 6.05553 11.3588 6.34843 11.6517C6.64132 11.9445 7.11619 11.9445 7.40909 11.6517L9.00008 10.0607L10.5911 11.6517Z" fill="white"/>
</svg>
