<svg width="18" height="18" viewBox="0 0 18 18" fill="none" xmlns="http://www.w3.org/2000/svg">
    <path style="fill:currentColor"
          d="M11.5303 5.53033C11.8232 5.23744 11.8232 4.76256 11.5303 4.46967C11.2374 4.17678 10.7626 4.17678 10.4697 4.46967L11.5303 5.53033ZM6.46967 8.46967C6.17678 8.76256 6.17678 9.23744 6.46967 9.53033C6.76256 9.82322 7.23744 9.82322 7.53033 9.53033L6.46967 8.46967ZM10.4697 13.5303C10.7626 13.8232 11.2374 13.8232 11.5303 13.5303C11.8232 13.2374 11.8232 12.7626 11.5303 12.4697L10.4697 13.5303ZM9.03033 9.96967C8.73744 9.67678 8.26256 9.67678 7.96967 9.96967C7.67678 10.2626 7.67678 10.7374 7.96967 11.0303L9.03033 9.96967ZM10.4697 4.46967L6.46967 8.46967L7.53033 9.53033L11.5303 5.53033L10.4697 4.46967ZM7.96967 11.0303L10.4697 13.5303L11.5303 12.4697L9.03033 9.96967L7.96967 11.0303Z"
          fill="#336CFF" stroke="none"/>
</svg>
