<svg width="18" height="18" viewBox="0 0 18 18" fill="none" xmlns="http://www.w3.org/2000/svg">
    <path fill-rule="evenodd" clip-rule="evenodd"
          d="M3 2.5C2.58579 2.5 2.25 2.83579 2.25 3.25C2.25 3.66421 2.58579 4 3 4H3.5V13.5C3.5 14.6046 4.48497 15.5 5.7 15.5H12.3C13.515 15.5 14.5 14.6046 14.5 13.5V6.5V4H15C15.4142 4 15.75 3.66421 15.75 3.25C15.75 2.83579 15.4142 2.5 15 2.5H3Z"
          style="fill: currentColor; stroke: none;"/>
    <g filter="url(#filter0_d_946_186691)">
        <path d="M5.23101 7.89374C5.4995 7.62526 5.9209 7.60288 6.21487 7.82662L6.29167 7.89374L7.81902 9.42109C7.90271 9.50478 8.03096 9.51673 8.12738 9.45696L8.17258 9.42109L11.7081 5.88556C12.001 5.59267 12.4759 5.59267 12.7688 5.88556C13.0373 6.15404 13.0596 6.57544 12.8359 6.86942L12.7688 6.94622L9.23324 10.4818C8.58399 11.131 7.55152 11.1635 6.86396 10.5791L6.75836 10.4818L5.23101 8.9544C4.93812 8.66151 4.93812 8.18664 5.23101 7.89374Z"
              fill="white"/>
    </g>
    <defs>
        <filter id="filter0_d_946_186691" x="5.01123" y="5.66589" width="9.97729" height="7.32837"
                filterUnits="userSpaceOnUse" color-interpolation-filters="sRGB">
            <feFlood flood-opacity="0" result="BackgroundImageFix"/>
            <feColorMatrix in="SourceAlpha" type="matrix" values="0 0 0 0 0 0 0 0 0 0 0 0 0 0 0 0 0 0 127 0"
                           result="hardAlpha"/>
            <feOffset dx="1" dy="1"/>
            <feGaussianBlur stdDeviation="0.5"/>
            <feColorMatrix type="matrix" values="0 0 0 0 0.100561 0 0 0 0 0.274353 0 0 0 0 0.780584 0 0 0 0.1 0"/>
            <feBlend mode="normal" in2="BackgroundImageFix" result="effect1_dropShadow_946_186691"/>
            <feBlend mode="normal" in="SourceGraphic" in2="effect1_dropShadow_946_186691" result="shape"/>
        </filter>
    </defs>
</svg>
