<svg width="36" height="36" viewBox="0 0 36 36" fill="none" xmlns="http://www.w3.org/2000/svg">
    <circle cx="18" cy="18" r="14" fill="#D7C944"/>
    <path fill-rule="evenodd" clip-rule="evenodd" d="M19.4863 12.2965C19.387 11.5643 18.7594 11 18 11C17.1716 11 16.5 11.6716 16.5 12.5V19.5L16.5137 19.7035C16.613 20.4357 17.2406 21 18 21C18.8284 21 19.5 20.3284 19.5 19.5V12.5L19.4863 12.2965ZM19.5258 23.5C19.5258 22.6716 18.8542 22 18.0258 22L17.7965 22.0137C17.0643 22.113 16.5 22.7406 16.5 23.5C16.5 24.3284 17.1716 25 18 25L18.2293 24.9863C18.9615 24.887 19.5258 24.2594 19.5258 23.5Z" fill="white"/>
</svg>
