<svg width="24" height="24" viewBox="0 0 24 24" fill="none" xmlns="http://www.w3.org/2000/svg">
    <circle cx="12" cy="12" r="12" fill="#C1C7DD"/>
    <mask id="mask0_0:2098" style="mask-type:alpha" maskUnits="userSpaceOnUse" x="0" y="0" width="24" height="24">
        <circle cx="12" cy="12" r="12" fill="white"/>
    </mask>
    <g mask="url(#mask0_0:2098)">
        <path d="M16.9658 22.5935L16.4974 21.4459C16.1514 20.5981 15.2521 20.0243 14.2318 20C14.1489 20.6414 13.1898 21.1505 12.0012 21.1505C10.8127 21.1505 9.86627 20.6442 9.77068 20C8.74642 20.0192 7.84106 20.5927 7.49234 21.443L7.03667 22.5935C6.93778 22.8344 7.04427 23.1035 7.29159 23.2377C7.85878 23.5471 9.18118 24 12.0012 24C14.8213 24 16.1437 23.5471 16.7077 23.2321C16.9532 23.0993 17.0606 22.8335 16.9658 22.5935Z" fill="#6975B7"/>
    </g>
    <path d="M13.6369 18.276L12.0168 18.168L10.3825 18.276C10.3825 18.276 10.6618 19.637 9.77075 19.9999C9.77075 19.9999 9.98113 21.1504 12.0001 21.1504C14.019 21.1504 14.2318 19.9999 14.2318 19.9999C13.3436 19.6458 13.6369 18.276 13.6369 18.276Z" fill="#FFE0D6"/>
    <mask id="mask1_0:2098" style="mask-type:alpha" maskUnits="userSpaceOnUse" x="9" y="18" width="6" height="4">
        <path d="M13.6369 18.276L12.0168 18.168L10.3825 18.276C10.3825 18.276 10.6618 19.637 9.77075 19.9999C9.77075 19.9999 9.98113 21.1504 12.0001 21.1504C14.019 21.1504 14.2318 19.9999 14.2318 19.9999C13.3436 19.6458 13.6369 18.276 13.6369 18.276Z" fill="white"/>
    </mask>
    <g mask="url(#mask1_0:2098)">
        <path d="M14.2318 19.3754C14.1341 19.1223 14.1314 18.53 14.2239 18.2762L12.0223 18.1641L9.80636 18.2762C9.89688 18.5368 9.88472 19.1358 9.77075 19.3934C10.4411 19.5579 11.0186 19.6637 12.1002 19.6594C13.1817 19.655 13.6463 19.5305 14.2318 19.3754Z" fill="#E3A693"/>
    </g>
    <path d="M18.1353 11.6545V9.77253C18.1353 7.12536 16.2569 5.12243 13.6687 4.23161C12.8035 3.93382 11.3869 3.93382 10.4839 4.228C8.50934 4.87127 6.82187 6.20747 6.27646 8.27175C6.04663 8.81342 6.04084 10.4701 6.04084 10.4701V11.587C5.70997 11.9715 5.5 12.2915 5.5 12.7388C5.5 13.4813 6.07621 14.1136 6.82911 14.2306C6.95682 16.8769 9.28015 18.9998 12.1178 18.9998C14.9554 18.9998 17.2788 16.8877 17.4065 14.2414C18.1594 14.1244 18.7002 13.5082 18.7002 12.7657C18.7001 12.3237 18.5431 11.9288 18.1353 11.6545Z" fill="#FFE0D6"/>
    <mask id="mask2_0:2098" style="mask-type:alpha" maskUnits="userSpaceOnUse" x="5" y="4" width="14" height="15">
        <path d="M18.1353 11.6545V9.77253C18.1353 7.12536 16.2569 5.12243 13.6687 4.23161C12.8035 3.93382 11.3869 3.93382 10.4839 4.228C8.50934 4.87127 6.82187 6.20747 6.27646 8.27175C6.04663 8.81342 6.04084 10.4701 6.04084 10.4701V11.587C5.70997 11.9715 5.5 12.2915 5.5 12.7388C5.5 13.4813 6.07621 14.1136 6.82911 14.2306C6.95682 16.8769 9.28015 18.9998 12.1178 18.9998C14.9554 18.9998 17.2788 16.8877 17.4065 14.2414C18.1594 14.1244 18.7002 13.5082 18.7002 12.7657C18.7001 12.3237 18.5431 11.9288 18.1353 11.6545Z" fill="white"/>
    </mask>
    <g mask="url(#mask2_0:2098)">
        <path fill-rule="evenodd" clip-rule="evenodd" d="M12.0588 17.208C12.6115 17.208 13.0588 16.8764 13.0588 16.4687V16.208H11.0588V16.4687C11.0588 16.8764 11.5062 17.208 12.0588 17.208Z" fill="#CB7564"/>
        <path fill-rule="evenodd" clip-rule="evenodd" d="M12.1682 3.82601C12.2415 3.82275 12.2811 3.82275 12.2811 3.82275L12.2812 3.84131C13.2625 3.98773 18.9948 5.14642 19.2194 12.2584L17.6304 11.3577C17.475 11.3022 17.31 11.2704 17.1241 11.2704C16.2483 11.2704 15.5475 10.5711 15.5475 9.7454C15.5475 9.33251 15.2028 8.96914 14.7649 8.96914H12.3022H12.1178H9.65511C9.21721 8.96914 8.87257 9.33251 8.87257 9.7454C8.87257 10.5711 8.1717 11.2704 7.29589 11.2704C7.11004 11.2704 6.94499 11.3022 6.78963 11.3577L5.0293 11.8944C5.0293 4.49427 11.1247 3.87862 12.1389 3.8274L12.1389 3.82275C12.1389 3.82275 12.1489 3.82372 12.1682 3.82601Z" fill="#282B2E"/>
        <path fill-rule="evenodd" clip-rule="evenodd" d="M9.41505 12.4717C9.69077 12.4717 9.91506 12.69 9.91506 12.9583C9.91506 13.2267 9.69077 13.445 9.41505 13.445C9.13933 13.445 8.91504 13.2267 8.91504 12.9583C8.91504 12.69 9.13933 12.4717 9.41505 12.4717ZM14.0962 12.9583C14.0962 12.69 14.3205 12.4717 14.5962 12.4717C14.8719 12.4717 15.0962 12.69 15.0962 12.9583C15.0962 13.2267 14.8719 13.445 14.5962 13.445C14.3205 13.445 14.0962 13.2267 14.0962 12.9583Z" fill="#282B2E"/>
        <path fill-rule="evenodd" clip-rule="evenodd" d="M12.7254 12.6077H11.2746C11.1112 11.6999 10.3353 11.0078 9.40385 11.0078C8.35407 11.0078 7.5 11.9248 7.5 13.0285C7.5 14.1323 8.35407 14.9983 9.40385 14.9983C10.3353 14.9983 11.1112 14.2631 11.2746 13.3286H12.7254C12.8888 14.2631 13.6647 15.0078 14.5962 15.0078C15.6459 15.0078 16.5 14.1116 16.5 13.0078C16.5 11.904 15.6459 11.0078 14.5962 11.0078C13.6647 11.0078 12.8888 11.6999 12.7254 12.6077ZM9.40387 14.3213C8.7359 14.3213 8.19233 13.7498 8.19233 13.0474C8.19233 12.3451 8.7359 11.7736 9.40387 11.7736C10.0718 11.7736 10.6154 12.3452 10.6154 13.0474C10.6154 13.7497 10.0718 14.3213 9.40387 14.3213ZM13.3846 13.0474C13.3846 13.7498 13.9282 14.3213 14.5962 14.3213C15.2641 14.3213 15.8077 13.7497 15.8077 13.0474C15.8077 12.3452 15.2641 11.7736 14.5962 11.7736C13.9282 11.7736 13.3846 12.3451 13.3846 13.0474Z" fill="#6975B7"/>
        <path fill-rule="evenodd" clip-rule="evenodd" d="M6.55884 12.7679C6.55884 12.5615 6.73696 12.3936 6.95591 12.3936C7.17487 12.3936 7.35299 12.5615 7.35299 12.7679C7.35299 12.9744 7.17487 13.1423 6.95591 13.1423C6.73696 13.1423 6.55884 12.9744 6.55884 12.7679ZM12.4453 14.8579H11.6491V15.3339H12.4453V14.8579ZM16.8826 12.7679C16.8826 12.5615 17.0607 12.3936 17.2797 12.3936C17.4986 12.3936 17.6767 12.5615 17.6767 12.7679C17.6767 12.9744 17.4986 13.1423 17.2797 13.1423C17.0607 13.1423 16.8826 12.9744 16.8826 12.7679Z" fill="#E3A693"/>
    </g>
</svg>
