<svg width="24" height="24" viewBox="0 0 24 24" fill="none" xmlns="http://www.w3.org/2000/svg">
    <circle cx="12" cy="12" r="12" fill="#44D7B6" fill-opacity="0.2"/>
    <mask id="mask0_1032:302020" style="mask-type:alpha" maskUnits="userSpaceOnUse" x="0" y="0" width="24" height="24">
        <circle cx="12" cy="12" r="12" fill="white"/>
    </mask>
    <g mask="url(#mask0_1032:302020)">
        <path d="M16.9658 22.5935L16.4974 21.4459C16.1514 20.5981 15.2521 20.0243 14.2318 20C14.1489 20.6414 13.1898 21.1505 12.0012 21.1505C10.8127 21.1505 9.86627 20.6442 9.77068 20C8.74642 20.0192 7.84106 20.5927 7.49234 21.443L7.03667 22.5935C6.93778 22.8344 7.04427 23.1035 7.29159 23.2377C7.85878 23.5471 9.18118 24 12.0012 24C14.8213 24 16.1437 23.5471 16.7077 23.2321C16.9532 23.0993 17.0606 22.8335 16.9658 22.5935Z" fill="#41B59B"/>
    </g>
    <path d="M13.6369 18.276L12.0168 18.168L10.3825 18.276C10.3825 18.276 10.6618 19.637 9.77075 19.9999C9.77075 19.9999 9.98113 21.1504 12.0001 21.1504C14.019 21.1504 14.2318 19.9999 14.2318 19.9999C13.3436 19.6458 13.6369 18.276 13.6369 18.276Z" fill="#E3A693"/>
    <mask id="mask1_1032:302020" style="mask-type:alpha" maskUnits="userSpaceOnUse" x="9" y="18" width="6" height="4">
        <path d="M13.6369 18.276L12.0168 18.168L10.3825 18.276C10.3825 18.276 10.6618 19.637 9.77075 19.9999C9.77075 19.9999 9.98113 21.1504 12.0001 21.1504C14.019 21.1504 14.2318 19.9999 14.2318 19.9999C13.3436 19.6458 13.6369 18.276 13.6369 18.276Z" fill="white"/>
    </mask>
    <g mask="url(#mask1_1032:302020)">
        <path d="M14.2318 19.3754C14.1341 19.1223 14.1314 18.53 14.2239 18.2762L12.0223 18.1641L9.80636 18.2762C9.89688 18.5368 9.88472 19.1358 9.77075 19.3934C10.4411 19.5579 11.0186 19.6637 12.1002 19.6594C13.1817 19.655 13.6463 19.5305 14.2318 19.3754Z" fill="#CB7564"/>
    </g>
    <circle cx="8" cy="6.5" r="1.5" fill="#282B2E"/>
    <circle cx="16" cy="6.5" r="1.5" fill="#282B2E"/>
    <circle cx="9.5" cy="5" r="1.5" fill="#282B2E"/>
    <circle cx="12" cy="4.5" r="1.5" fill="#282B2E"/>
    <circle cx="14.5" cy="5" r="1.5" fill="#282B2E"/>
    <path d="M18.1353 11.6545V9.77253C18.1353 7.12536 16.2569 5.12243 13.6687 4.23161C12.8035 3.93382 11.3869 3.93382 10.4839 4.228C8.50934 4.87127 6.82187 6.20747 6.27646 8.27175C6.04663 8.81342 6.04084 10.4701 6.04084 10.4701V11.587C5.70997 11.9715 5.5 12.2915 5.5 12.7388C5.5 13.4813 6.07621 14.1136 6.82911 14.2306C6.95682 16.8769 9.28015 18.9998 12.1178 18.9998C14.9554 18.9998 17.2788 16.8877 17.4065 14.2414C18.1594 14.1244 18.7002 13.5082 18.7002 12.7657C18.7001 12.3237 18.5431 11.9288 18.1353 11.6545Z" fill="#E3A693"/>
    <mask id="mask2_1032:302020" style="mask-type:alpha" maskUnits="userSpaceOnUse" x="5" y="4" width="14" height="15">
        <path d="M18.1353 11.6545V9.77253C18.1353 7.12536 16.2569 5.12243 13.6687 4.23161C12.8035 3.93382 11.3869 3.93382 10.4839 4.228C8.50934 4.87127 6.82187 6.20747 6.27646 8.27175C6.04663 8.81342 6.04084 10.4701 6.04084 10.4701V11.587C5.70997 11.9715 5.5 12.2915 5.5 12.7388C5.5 13.4813 6.07621 14.1136 6.82911 14.2306C6.95682 16.8769 9.28015 18.9998 12.1178 18.9998C14.9554 18.9998 17.2788 16.8877 17.4065 14.2414C18.1594 14.1244 18.7002 13.5082 18.7002 12.7657C18.7001 12.3237 18.5431 11.9288 18.1353 11.6545Z" fill="white"/>
    </mask>
    <g mask="url(#mask2_1032:302020)">
        <path fill-rule="evenodd" clip-rule="evenodd" d="M12.0588 17.208C12.6115 17.208 13.0588 16.8764 13.0588 16.4687V16.208H11.0588V16.4687C11.0588 16.8764 11.5062 17.208 12.0588 17.208Z" fill="#CB7564"/>
        <path d="M18.5 11.5H18C17.5 11 16.5 11 16 11H14.659C14.2591 11 13.8998 10.7604 13.6971 10.4157C13.35 9.82538 12.7336 9 12 9H9.79317C9.32833 9 8.92835 9.32182 8.77581 9.76092C8.59784 10.2733 8.32529 10.8771 8 11C7.18503 11.308 6.5 11 6 11.5V4H18.5V11.5Z" fill="#282B2E"/>
        <path fill-rule="evenodd" clip-rule="evenodd" d="M6.55884 12.7679C6.55884 12.5615 6.73696 12.3936 6.95591 12.3936C7.17487 12.3936 7.35299 12.5615 7.35299 12.7679C7.35299 12.9744 7.17487 13.1423 6.95591 13.1423C6.73696 13.1423 6.55884 12.9744 6.55884 12.7679ZM12.4453 14.8579H11.6491V15.3339H12.4453V14.8579ZM16.8826 12.7679C16.8826 12.5615 17.0607 12.3936 17.2797 12.3936C17.4986 12.3936 17.6767 12.5615 17.6767 12.7679C17.6767 12.9744 17.4986 13.1423 17.2797 13.1423C17.0607 13.1423 16.8826 12.9744 16.8826 12.7679Z" fill="#CB7564"/>
        <path fill-rule="evenodd" clip-rule="evenodd" d="M9.75 14C10.1642 14 10.5 13.6642 10.5 13.25C10.5 12.8358 10.1642 12.5 9.75 12.5C9.33579 12.5 9 12.8358 9 13.25C9 13.6642 9.33579 14 9.75 14ZM14.25 14C14.6642 14 15 13.6642 15 13.25C15 12.8358 14.6642 12.5 14.25 12.5C13.8358 12.5 13.5 12.8358 13.5 13.25C13.5 13.6642 13.8358 14 14.25 14Z" fill="#282B2E"/>
    </g>
</svg>
