<svg width="24" height="24" viewBox="0 0 24 24" fill="none" xmlns="http://www.w3.org/2000/svg">
    <circle cx="12" cy="12" r="12" fill="#F5991B" fill-opacity="0.3"/>
    <path d="M12.4291 4H11.5709C8.49419 4 6 6.49419 6 9.57093C6 11.8484 5.72069 14.1172 5.16833 16.3267L4.81063 17.7575C4.65285 18.3886 5.13021 19 5.78078 19H18.2192C18.8698 19 19.3472 18.3886 19.1894 17.7575L18.8317 16.3267C18.2793 14.1172 18 11.8484 18 9.57093C18 6.49419 15.5058 4 12.4291 4Z" fill="#282B2E"/>
    <mask id="mask0_1032:302018" style="mask-type:alpha" maskUnits="userSpaceOnUse" x="0" y="0" width="24" height="24">
        <circle cx="12" cy="12" r="12" fill="white"/>
    </mask>
    <g mask="url(#mask0_1032:302018)">
        <path d="M16.9658 22.5935L16.4974 21.4459C16.1514 20.5981 15.2521 20.0243 14.2318 20C14.1489 20.6414 13.1898 21.1505 12.0012 21.1505C10.8127 21.1505 9.86627 20.6442 9.77068 20C8.74642 20.0192 7.84106 20.5927 7.49234 21.443L7.03667 22.5935C6.93778 22.8344 7.04427 23.1035 7.29159 23.2377C7.85878 23.5471 9.18118 24 12.0012 24C14.8213 24 16.1437 23.5471 16.7077 23.2321C16.9532 23.0993 17.0606 22.8335 16.9658 22.5935Z" fill="#F5991B"/>
        <path fill-rule="evenodd" clip-rule="evenodd" d="M11 21L10.134 20.5L9.88397 20.933C9.74589 21.1722 9.82783 21.478 10.067 21.616C10.3061 21.7541 10.6119 21.6722 10.75 21.433L11 21ZM11 21L11.9848 21.1736L11.898 21.6661C11.85 21.938 11.5907 22.1196 11.3187 22.0716C11.0468 22.0237 10.8652 21.7644 10.9132 21.4924L11 21ZM13.0001 21.0002L13.0868 21.4916C13.1347 21.7636 12.9531 22.0229 12.6812 22.0708C12.4092 22.1188 12.1499 21.9372 12.102 21.6653L12.0151 21.1729L12.9999 20.9992L13.0001 21L13.866 20.5L14.116 20.933C14.2541 21.1722 14.1722 21.478 13.933 21.616C13.6939 21.7541 13.3881 21.6722 13.25 21.433L13.0001 21.0002Z" fill="#FFD15B"/>
    </g>
    <path d="M13.6367 18.276L12.0167 18.168L10.3824 18.276C10.3824 18.276 10.6617 19.637 9.77063 19.9999C9.77063 19.9999 9.981 21.1504 12 21.1504C14.0189 21.1504 14.2317 19.9999 14.2317 19.9999C13.3434 19.6458 13.6367 18.276 13.6367 18.276Z" fill="#FFEDE7"/>
    <mask id="mask1_1032:302018" style="mask-type:alpha" maskUnits="userSpaceOnUse" x="9" y="18" width="6" height="4">
        <path d="M13.6367 18.276L12.0167 18.168L10.3824 18.276C10.3824 18.276 10.6617 19.637 9.77063 19.9999C9.77063 19.9999 9.981 21.1504 12 21.1504C14.0189 21.1504 14.2317 19.9999 14.2317 19.9999C13.3434 19.6458 13.6367 18.276 13.6367 18.276Z" fill="white"/>
    </mask>
    <g mask="url(#mask1_1032:302018)">
        <path d="M14.2317 19.3754C14.134 19.1223 14.1313 18.53 14.2238 18.2762L12.0222 18.1641L9.80624 18.2762C9.89676 18.5368 9.8846 19.1358 9.77063 19.3934C10.441 19.5579 11.0185 19.6637 12.1 19.6594C13.1816 19.655 13.6462 19.5305 14.2317 19.3754Z" fill="#E3A693"/>
    </g>
    <path d="M18.1353 11.6545V9.77253C18.1353 7.12536 16.2569 5.12243 13.6687 4.23161C12.8035 3.93382 11.3869 3.93382 10.4839 4.228C8.50934 4.87127 6.82187 6.20747 6.27646 8.27175C6.04663 8.81342 6.04084 10.4701 6.04084 10.4701V11.587C5.70997 11.9715 5.5 12.2915 5.5 12.7388C5.5 13.4813 6.07621 14.1136 6.82911 14.2306C6.95682 16.8769 9.28015 18.9998 12.1178 18.9998C14.9554 18.9998 17.2788 16.8877 17.4065 14.2414C18.1594 14.1244 18.7002 13.5082 18.7002 12.7657C18.7001 12.3237 18.5431 11.9288 18.1353 11.6545Z" fill="#FFEDE7"/>
    <mask id="mask2_1032:302018" style="mask-type:alpha" maskUnits="userSpaceOnUse" x="5" y="4" width="14" height="15">
        <path d="M18.1353 11.6545V9.77253C18.1353 7.12536 16.2569 5.12243 13.6687 4.23161C12.8035 3.93382 11.3869 3.93382 10.4839 4.228C8.50934 4.87127 6.82187 6.20747 6.27646 8.27175C6.04663 8.81342 6.04084 10.4701 6.04084 10.4701V11.587C5.70997 11.9715 5.5 12.2915 5.5 12.7388C5.5 13.4813 6.07621 14.1136 6.82911 14.2306C6.95682 16.8769 9.28015 18.9998 12.1178 18.9998C14.9554 18.9998 17.2788 16.8877 17.4065 14.2414C18.1594 14.1244 18.7002 13.5082 18.7002 12.7657C18.7001 12.3237 18.5431 11.9288 18.1353 11.6545Z" fill="white"/>
    </mask>
    <g mask="url(#mask2_1032:302018)">
        <path fill-rule="evenodd" clip-rule="evenodd" d="M12.059 17.208C12.6116 17.208 13.059 16.8764 13.059 16.4687V16.208H11.059V16.4687C11.059 16.8764 11.5063 17.208 12.059 17.208Z" fill="#CB7564"/>
        <path d="M18.5 11.5H18C17.5 11 16.7057 11.2702 16 11C15.6517 10.8666 15.3865 10.287 15.217 9.7858C15.0649 9.33591 14.6595 9 14.1846 9H12H9.79317C9.32833 9 8.92835 9.32182 8.77581 9.76092C8.59784 10.2733 8.32529 10.8771 8 11C7.18503 11.308 6.5 11 6 11.5V4H18.5V11.5Z" fill="#282B2E"/>
        <path fill-rule="evenodd" clip-rule="evenodd" d="M6.55884 12.7679C6.55884 12.5615 6.73696 12.3936 6.95591 12.3936C7.17487 12.3936 7.35299 12.5615 7.35299 12.7679C7.35299 12.9744 7.17487 13.1423 6.95591 13.1423C6.73696 13.1423 6.55884 12.9744 6.55884 12.7679ZM12.4453 14.8579H11.6491V15.3339H12.4453V14.8579ZM16.8826 12.7679C16.8826 12.5615 17.0607 12.3936 17.2797 12.3936C17.4986 12.3936 17.6767 12.5615 17.6767 12.7679C17.6767 12.9744 17.4986 13.1423 17.2797 13.1423C17.0607 13.1423 16.8826 12.9744 16.8826 12.7679Z" fill="#E3A693"/>
        <path fill-rule="evenodd" clip-rule="evenodd" d="M9.75 14C10.1642 14 10.5 13.6642 10.5 13.25C10.5 12.8358 10.1642 12.5 9.75 12.5C9.33579 12.5 9 12.8358 9 13.25C9 13.6642 9.33579 14 9.75 14ZM14.25 14C14.6642 14 15 13.6642 15 13.25C15 12.8358 14.6642 12.5 14.25 12.5C13.8358 12.5 13.5 12.8358 13.5 13.25C13.5 13.6642 13.8358 14 14.25 14Z" fill="#282B2E"/>
        <path d="M9 12.5L9.75 13" stroke="#282B2E" stroke-width="0.5" stroke-linecap="round"/>
        <path d="M15 12.5L14.25 13" stroke="#282B2E" stroke-width="0.5" stroke-linecap="round"/>
        <path fill-rule="evenodd" clip-rule="evenodd" d="M13.7072 7.12132C14.0977 7.51184 14.7309 7.51184 15.1214 7.12132C14.7309 7.51184 14.7309 8.14501 15.1214 8.53553C15.5119 8.92606 16.1451 8.92606 16.5356 8.53553C16.9262 8.14501 16.9262 7.51184 16.5356 7.12132C16.1451 6.7308 15.5119 6.7308 15.1214 7.12132C15.5119 6.7308 15.5119 6.09763 15.1214 5.70711C14.7309 5.31658 14.0977 5.31658 13.7072 5.70711C13.3167 6.09763 13.3167 6.7308 13.7072 7.12132Z" fill="#F5991B"/>
        <path fill-rule="evenodd" clip-rule="evenodd" d="M11.15 8.30001C11.2605 8.38286 11.2829 8.53956 11.2 8.65001L9.70001 10.65C9.61717 10.7605 9.46047 10.7829 9.35001 10.7C9.23956 10.6172 9.21717 10.4605 9.30001 10.35L10.8 8.35001C10.8829 8.23956 11.0396 8.21717 11.15 8.30001ZM12 8.75001C12.1381 8.75001 12.25 8.86194 12.25 9.00001V10.5C12.25 10.6381 12.1381 10.75 12 10.75C11.8619 10.75 11.75 10.6381 11.75 10.5V9.00001C11.75 8.86194 11.8619 8.75001 12 8.75001ZM12.8 8.65001C12.7172 8.53956 12.7396 8.38286 12.85 8.30001C12.9605 8.21717 13.1172 8.23956 13.2 8.35001L14.7 10.35C14.7829 10.4605 14.7605 10.6172 14.65 10.7C14.5396 10.7829 14.3829 10.7605 14.3 10.65L12.8 8.65001Z" fill="#282B2E"/>
    </g>
</svg>
