<svg width="24" height="24" viewBox="0 0 24 24" fill="none" xmlns="http://www.w3.org/2000/svg">
    <circle cx="12" cy="12" r="12" fill="#D7C944" fill-opacity="0.2"/>
    <path d="M19 16.5L18.7068 10.3926C18.5351 6.81356 15.5832 4 12 4C8.4168 4 5.46495 6.81356 5.29315 10.3926L5 16.5L4.42869 19.6422C4.20547 20.8699 5.14862 22 6.39643 22H17.6036C18.8514 22 19.7945 20.8699 19.5713 19.6422L19 16.5Z"
          fill="#D7C944"/>
    <mask id="mask0_1032:302019" style="mask-type:alpha" maskUnits="userSpaceOnUse" x="0" y="0" width="24" height="24">
        <circle cx="12" cy="12" r="12" fill="white"/>
    </mask>
    <g mask="url(#mask0_1032:302019)">
        <path d="M16.9658 22.5935L16.4974 21.4459C16.1514 20.5981 15.2521 20.0243 14.2318 20C14.1489 20.6414 13.1898 21.1505 12.0012 21.1505C10.8127 21.1505 9.86627 20.6442 9.77068 20C8.74642 20.0192 7.84106 20.5927 7.49234 21.443L7.03667 22.5935C6.93778 22.8344 7.04427 23.1035 7.29159 23.2377C7.85878 23.5471 9.18118 24 12.0012 24C14.8213 24 16.1437 23.5471 16.7077 23.2321C16.9532 23.0993 17.0606 22.8335 16.9658 22.5935Z"
              fill="white"/>
    </g>
    <path d="M13.6367 18.276L12.0167 18.168L10.3824 18.276C10.3824 18.276 10.6617 19.637 9.77063 19.9999C9.77063 19.9999 9.74831 21.1504 12 21.1504C14.2317 21.1504 14.2317 19.9999 14.2317 19.9999C13.3434 19.6458 13.6367 18.276 13.6367 18.276Z"
          fill="#E3A693"/>
    <path d="M12.0001 21.1506C9.74844 21.1506 9.77076 20.0001 9.77076 20.0001C9.85792 19.9646 9.93389 19.9196 10 19.8672H14.0011C14.0673 19.9199 14.1438 19.965 14.2318 20.0001C14.2318 20.0001 14.2318 21.1506 12.0001 21.1506Z"
          fill="white"/>
    <mask id="mask1_1032:302019" style="mask-type:alpha" maskUnits="userSpaceOnUse" x="9" y="18" width="6" height="4">
        <path d="M13.6367 18.276L12.0167 18.168L10.3824 18.276C10.3824 18.276 10.6617 19.637 9.77063 19.9999C9.77063 19.9999 9.981 21.1504 12 21.1504C14.0189 21.1504 14.2317 19.9999 14.2317 19.9999C13.3434 19.6458 13.6367 18.276 13.6367 18.276Z"
              fill="white"/>
    </mask>
    <g mask="url(#mask1_1032:302019)">
        <path d="M14.2317 19.3754C14.134 19.1223 14.1313 18.53 14.2238 18.2762L12.0222 18.1641L9.80624 18.2762C9.89676 18.5368 9.8846 19.1358 9.77063 19.3934C10.441 19.5579 11.0185 19.6637 12.1 19.6594C13.1816 19.655 13.6462 19.5305 14.2317 19.3754Z"
              fill="#E3A693"/>
    </g>
    <path fill-rule="evenodd" clip-rule="evenodd"
          d="M11 20.5H10V20C10 19.7239 10.2239 19.5 10.5 19.5C10.7761 19.5 11 19.7239 11 20C11 19.7239 11.2239 19.5 11.5 19.5C11.7761 19.5 12 19.7239 12 20C12 19.7239 12.2239 19.5 12.5 19.5C12.7761 19.5 13 19.7239 13 20C13 19.7239 13.2239 19.5 13.5 19.5C13.7761 19.5 14 19.7239 14 20V20.5H13H12H11Z"
          fill="white"/>
    <path d="M18.1353 11.6545V9.77253C18.1353 7.12536 16.2569 5.12243 13.6687 4.23161C12.8035 3.93382 11.3869 3.93382 10.4839 4.228C8.50934 4.87127 6.82187 6.20747 6.27646 8.27175C6.04663 8.81342 6.04084 10.4701 6.04084 10.4701V11.587C5.70997 11.9715 5.5 12.2915 5.5 12.7388C5.5 13.4813 6.07621 14.1136 6.82911 14.2306C6.95682 16.8769 9.28015 18.9998 12.1178 18.9998C14.9554 18.9998 17.2788 16.8877 17.4065 14.2414C18.1594 14.1244 18.7002 13.5082 18.7002 12.7657C18.7001 12.3237 18.5431 11.9288 18.1353 11.6545Z"
          fill="#FFEDE7"/>
    <mask id="mask2_1032:302019" style="mask-type:alpha" maskUnits="userSpaceOnUse" x="5" y="4" width="14" height="15">
        <path d="M18.1353 11.6545V9.77253C18.1353 7.12536 16.2569 5.12243 13.6687 4.23161C12.8035 3.93382 11.3869 3.93382 10.4839 4.228C8.50934 4.87127 6.82187 6.20747 6.27646 8.27175C6.04663 8.81342 6.04084 10.4701 6.04084 10.4701V11.587C5.70997 11.9715 5.5 12.2915 5.5 12.7388C5.5 13.4813 6.07621 14.1136 6.82911 14.2306C6.95682 16.8769 9.28015 18.9998 12.1178 18.9998C14.9554 18.9998 17.2788 16.8877 17.4065 14.2414C18.1594 14.1244 18.7002 13.5082 18.7002 12.7657C18.7001 12.3237 18.5431 11.9288 18.1353 11.6545Z"
              fill="white"/>
    </mask>
    <g mask="url(#mask2_1032:302019)">
        <path fill-rule="evenodd" clip-rule="evenodd"
              d="M12.059 17.208C12.6116 17.208 13.059 16.8764 13.059 16.4687V16.208H11.059V16.4687C11.059 16.8764 11.5063 17.208 12.059 17.208Z"
              fill="#CB7564"/>
        <path d="M18.5 11.5H18H16H13.0655C12.7142 11.5 12.3894 11.3157 12.2087 11.0145L11 9L10.2514 10.8714C10.0996 11.251 9.73211 11.5 9.3232 11.5H8H6V4H18.5V11.5Z"
              fill="#D7C944"/>
        <path fill-rule="evenodd" clip-rule="evenodd"
              d="M6.55884 12.7679C6.55884 12.5615 6.73696 12.3936 6.95591 12.3936C7.17487 12.3936 7.35299 12.5615 7.35299 12.7679C7.35299 12.9744 7.17487 13.1423 6.95591 13.1423C6.73696 13.1423 6.55884 12.9744 6.55884 12.7679ZM12.4453 14.8579H11.6491V15.3339H12.4453V14.8579ZM16.8826 12.7679C16.8826 12.5615 17.0607 12.3936 17.2797 12.3936C17.4986 12.3936 17.6767 12.5615 17.6767 12.7679C17.6767 12.9744 17.4986 13.1423 17.2797 13.1423C17.0607 13.1423 16.8826 12.9744 16.8826 12.7679Z"
              fill="#E3A693"/>
        <path fill-rule="evenodd" clip-rule="evenodd"
              d="M8.79201 12.3614C8.8686 12.2465 9.02382 12.2154 9.1387 12.292L9.50971 12.5394C9.58515 12.5139 9.66598 12.5 9.75003 12.5C10.1642 12.5 10.5 12.8358 10.5 13.25C10.5 13.6642 10.1642 14 9.75003 14C9.33581 14 9.00003 13.6642 9.00003 13.25C9.00003 13.1111 9.03778 12.9811 9.10358 12.8695L8.86135 12.708C8.74647 12.6315 8.71543 12.4762 8.79201 12.3614ZM14.25 14C14.6642 14 15 13.6642 15 13.25C15 13.1111 14.9623 12.9811 14.8965 12.8695L15.1387 12.708C15.2536 12.6315 15.2846 12.4762 15.208 12.3614C15.1315 12.2465 14.9762 12.2154 14.8614 12.292L14.4903 12.5394C14.4149 12.5139 14.3341 12.5 14.25 12.5C13.8358 12.5 13.5 12.8358 13.5 13.25C13.5 13.6642 13.8358 14 14.25 14Z"
              fill="#336CFF"/>
        <path d="M5 11L5.14305 10.6424C6.26458 7.83854 8.98017 6 12 6V6C15.0198 6 17.7354 7.83854 18.857 10.6424L19 11"
              stroke="white" stroke-linecap="round"/>
    </g>
</svg>
